<?xml version="1.0" encoding="utf-8" standalone="no"?>
<!DOCTYPE svg PUBLIC "-//W3C//DTD SVG 1.1//EN"
  "http://www.w3.org/Graphics/SVG/1.1/DTD/svg11.dtd">
<svg xmlns:xlink="http://www.w3.org/1999/xlink" width="612pt" height="345.6pt" viewBox="0 0 612 345.6" xmlns="http://www.w3.org/2000/svg" version="1.1">
 <metadata>
  <rdf:RDF xmlns:dc="http://purl.org/dc/elements/1.1/" xmlns:cc="http://creativecommons.org/ns#" xmlns:rdf="http://www.w3.org/1999/02/22-rdf-syntax-ns#">
   <cc:Work>
    <dc:type rdf:resource="http://purl.org/dc/dcmitype/StillImage"/>
    <dc:date>2026-03-15T02:15:30.237092</dc:date>
    <dc:format>image/svg+xml</dc:format>
    <dc:creator>
     <cc:Agent>
      <dc:title>Matplotlib v3.10.8, https://matplotlib.org/</dc:title>
     </cc:Agent>
    </dc:creator>
   </cc:Work>
  </rdf:RDF>
 </metadata>
 <defs>
  <style type="text/css">*{stroke-linejoin: round; stroke-linecap: butt}</style>
 </defs>
 <g id="figure_1">
  <g id="patch_1">
   <path d="M 0 345.6 
L 612 345.6 
L 612 0 
L 0 0 
z
" style="fill: #ffffff"/>
  </g>
  <g id="axes_1">
   <g id="patch_2">
    <path d="M 58.82 305.3875 
L 601.2 305.3875 
L 601.2 26.61 
L 58.82 26.61 
z
" style="fill: #ffffff"/>
   </g>
   <g id="patch_3">
    <path d="M 83.473636 305.3875 
L 224.351558 305.3875 
L 224.351558 69.135381 
L 83.473636 69.135381 
z
" clip-path="url(#p7634c411a0)" style="fill: #a8dadc"/>
   </g>
   <g id="patch_4">
    <path d="M 259.571039 305.3875 
L 400.448961 305.3875 
L 400.448961 150.617939 
L 259.571039 150.617939 
z
" clip-path="url(#p7634c411a0)" style="fill: #2a9d8f"/>
   </g>
   <g id="patch_5">
    <path d="M 435.668442 305.3875 
L 576.546364 305.3875 
L 576.546364 190.365948 
L 435.668442 190.365948 
z
" clip-path="url(#p7634c411a0)" style="fill: #1d3557"/>
   </g>
   <g id="matplotlib.axis_1">
    <g id="xtick_1">
     <g id="line2d_1">
      <defs>
       <path id="m5d5ac0e4c4" d="M 0 0 
L 0 3.5 
" style="stroke: #000000; stroke-width: 0.8"/>
      </defs>
      <g>
       <use xlink:href="#m5d5ac0e4c4" x="153.912597" y="305.3875" style="stroke: #000000; stroke-width: 0.8"/>
      </g>
     </g>
     <g id="text_1">
      <!-- &gt;=3 -->
      <g transform="translate(145.291504 319.545312) scale(0.1 -0.1)">
       <defs>
        <path id="ArialUnicodeMS-3e" d="M 3384 1991 
L 353 709 
L 353 1269 
L 2759 2253 
L 353 3250 
L 353 3809 
L 3384 2516 
L 3384 1991 
z
" transform="scale(0.015625)"/>
        <path id="ArialUnicodeMS-3d" d="M 3384 2694 
L 353 2694 
L 353 3219 
L 3384 3219 
L 3384 2694 
z
M 3384 1300 
L 353 1300 
L 353 1825 
L 3384 1825 
L 3384 1300 
z
" transform="scale(0.015625)"/>
        <path id="ArialUnicodeMS-33" d="M 2425 2478 
Q 2850 2397 3067 2067 
Q 3284 1738 3284 1350 
Q 3284 725 2829 323 
Q 2375 -78 1741 -78 
Q 1134 -78 740 275 
Q 347 628 281 1209 
L 844 1288 
Q 928 834 1151 609 
Q 1375 384 1741 384 
Q 2134 384 2407 661 
Q 2681 938 2681 1338 
Q 2681 1722 2432 1975 
Q 2184 2228 1784 2228 
Q 1622 2228 1388 2169 
L 1453 2663 
Q 1678 2663 1809 2684 
Q 1941 2706 2103 2790 
Q 2266 2875 2372 3033 
Q 2478 3191 2478 3425 
Q 2478 3766 2251 3953 
Q 2025 4141 1728 4141 
Q 1388 4141 1173 3925 
Q 959 3709 903 3309 
L 341 3413 
Q 450 4009 823 4306 
Q 1197 4603 1716 4603 
Q 2288 4603 2670 4258 
Q 3053 3913 3053 3413 
Q 3053 2772 2425 2491 
L 2425 2478 
z
" transform="scale(0.015625)"/>
       </defs>
       <use xlink:href="#ArialUnicodeMS-3e"/>
       <use xlink:href="#ArialUnicodeMS-3d" transform="translate(58.398438 0)"/>
       <use xlink:href="#ArialUnicodeMS-33" transform="translate(116.796875 0)"/>
      </g>
     </g>
    </g>
    <g id="xtick_2">
     <g id="line2d_2">
      <g>
       <use xlink:href="#m5d5ac0e4c4" x="330.01" y="305.3875" style="stroke: #000000; stroke-width: 0.8"/>
      </g>
     </g>
     <g id="text_2">
      <!-- &gt;=5 -->
      <g transform="translate(321.388906 319.545312) scale(0.1 -0.1)">
       <defs>
        <path id="ArialUnicodeMS-35" d="M 1013 2753 
Q 1431 3041 1881 3041 
Q 2453 3041 2878 2636 
Q 3303 2231 3303 1556 
Q 3303 875 2872 398 
Q 2441 -78 1741 -78 
Q 1169 -78 750 245 
Q 331 569 269 1203 
L 856 1247 
Q 928 813 1162 598 
Q 1397 384 1741 384 
Q 2169 384 2434 707 
Q 2700 1031 2700 1503 
Q 2700 1984 2428 2262 
Q 2156 2541 1728 2541 
Q 1188 2541 897 2100 
L 366 2163 
L 813 4519 
L 3084 4519 
L 3084 3975 
L 1259 3975 
L 1013 2753 
z
" transform="scale(0.015625)"/>
       </defs>
       <use xlink:href="#ArialUnicodeMS-3e"/>
       <use xlink:href="#ArialUnicodeMS-3d" transform="translate(58.398438 0)"/>
       <use xlink:href="#ArialUnicodeMS-35" transform="translate(116.796875 0)"/>
      </g>
     </g>
    </g>
    <g id="xtick_3">
     <g id="line2d_3">
      <g>
       <use xlink:href="#m5d5ac0e4c4" x="506.107403" y="305.3875" style="stroke: #000000; stroke-width: 0.8"/>
      </g>
     </g>
     <g id="text_3">
      <!-- &gt;=7 -->
      <g transform="translate(497.486309 319.545312) scale(0.1 -0.1)">
       <defs>
        <path id="ArialUnicodeMS-37" d="M 3272 4084 
Q 2597 3344 2103 2253 
Q 1609 1163 1522 0 
L 947 0 
Q 969 934 1408 2051 
Q 1847 3169 2547 3975 
L 306 3975 
L 306 4519 
L 3272 4519 
L 3272 4084 
z
" transform="scale(0.015625)"/>
       </defs>
       <use xlink:href="#ArialUnicodeMS-3e"/>
       <use xlink:href="#ArialUnicodeMS-3d" transform="translate(58.398438 0)"/>
       <use xlink:href="#ArialUnicodeMS-37" transform="translate(116.796875 0)"/>
      </g>
     </g>
    </g>
    <g id="text_4">
     <!-- A-SOUL 任意直播累计有效到场阈值 -->
     <g transform="translate(250.005312 332.720312) scale(0.1 -0.1)">
      <defs>
       <path id="ArialUnicodeMS-41" d="M 4275 0 
L 3591 0 
L 3053 1394 
L 1141 1394 
L 634 0 
L -6 0 
L 1753 4581 
L 2406 4581 
L 4275 0 
z
M 2869 1875 
Q 2306 3363 2234 3564 
Q 2163 3766 2075 4103 
L 2059 4103 
Q 1972 3641 1825 3247 
L 1313 1875 
L 2869 1875 
z
" transform="scale(0.015625)"/>
       <path id="ArialUnicodeMS-2d" d="M 1925 1375 
L 206 1375 
L 206 1941 
L 1925 1941 
L 1925 1375 
z
" transform="scale(0.015625)"/>
       <path id="ArialUnicodeMS-53" d="M 3213 3238 
Q 3175 3675 2897 3895 
Q 2619 4116 2100 4116 
Q 1631 4116 1337 3941 
Q 1044 3766 1044 3431 
Q 1044 3134 1270 2989 
Q 1497 2844 2138 2700 
Q 2706 2575 3065 2444 
Q 3425 2313 3681 2036 
Q 3938 1759 3938 1294 
Q 3938 703 3467 312 
Q 2997 -78 2241 -78 
Q 1275 -78 795 353 
Q 316 784 288 1472 
L 863 1522 
Q 903 972 1287 720 
Q 1672 469 2216 469 
Q 2725 469 3039 678 
Q 3353 888 3353 1247 
Q 3353 1622 3025 1794 
Q 2697 1966 1923 2133 
Q 1150 2300 809 2603 
Q 469 2906 469 3391 
Q 469 3941 900 4300 
Q 1331 4659 2075 4659 
Q 2838 4659 3302 4301 
Q 3766 3944 3794 3284 
L 3213 3238 
z
" transform="scale(0.015625)"/>
       <path id="ArialUnicodeMS-4f" d="M 2497 4659 
Q 3459 4659 4071 4006 
Q 4684 3353 4684 2284 
Q 4684 1219 4068 570 
Q 3453 -78 2497 -78 
Q 1506 -78 903 594 
Q 300 1266 300 2234 
Q 300 3363 911 4011 
Q 1522 4659 2497 4659 
z
M 2491 441 
Q 3188 441 3620 928 
Q 4053 1416 4056 2284 
Q 4056 3178 3614 3659 
Q 3172 4141 2503 4141 
Q 1816 4141 1372 3669 
Q 928 3197 928 2222 
Q 928 1425 1362 933 
Q 1797 441 2491 441 
z
" transform="scale(0.015625)"/>
       <path id="ArialUnicodeMS-55" d="M 4109 1931 
Q 4109 1578 4070 1278 
Q 4031 978 3864 661 
Q 3697 344 3320 133 
Q 2944 -78 2316 -78 
Q 1703 -78 1328 109 
Q 953 297 778 594 
Q 603 891 554 1212 
Q 506 1534 506 1931 
L 506 4581 
L 1113 4581 
L 1113 1941 
Q 1113 1528 1172 1229 
Q 1231 931 1484 700 
Q 1738 469 2266 469 
Q 2800 469 3069 653 
Q 3338 838 3419 1145 
Q 3500 1453 3500 1941 
L 3500 4581 
L 4109 4581 
L 4109 1931 
z
" transform="scale(0.015625)"/>
       <path id="ArialUnicodeMS-4c" d="M 3347 0 
L 481 0 
L 481 4581 
L 1088 4581 
L 1088 544 
L 3347 544 
L 3347 0 
z
" transform="scale(0.015625)"/>
       <path id="ArialUnicodeMS-20" transform="scale(0.015625)"/>
       <path id="ArialUnicodeMS-4efb" d="M 2322 5081 
L 1741 3859 
L 1741 -469 
L 1228 -469 
L 1228 3059 
Q 1013 2653 575 2266 
L 172 2613 
Q 1034 3388 1844 5313 
L 2322 5081 
z
M 6075 2028 
L 4231 2028 
L 4231 225 
L 5650 225 
L 5650 -244 
L 2272 -244 
L 2272 225 
L 3694 225 
L 3694 2028 
L 1919 2028 
L 1919 2516 
L 3694 2516 
L 3694 4078 
Q 3072 4022 2491 4013 
L 2228 4500 
Q 4097 4491 5306 4928 
L 5613 4556 
Q 4978 4278 4231 4153 
L 4231 2516 
L 6075 2516 
L 6075 2028 
z
" transform="scale(0.015625)"/>
       <path id="ArialUnicodeMS-610f" d="M 5875 3278 
L 531 3278 
L 531 3744 
L 2247 3744 
Q 1875 4191 1819 4225 
L 2003 4341 
L 959 4341 
L 959 4806 
L 2956 4806 
L 2956 5375 
L 3444 5375 
L 3444 4806 
L 5441 4806 
L 5441 4341 
L 4422 4341 
L 4531 4263 
Q 4403 3984 4172 3744 
L 5875 3744 
L 5875 3278 
z
M 4000 4341 
L 2356 4341 
Q 2619 4113 2778 3744 
L 3584 3744 
Q 3863 3994 4000 4341 
z
M 5006 1222 
L 3244 1222 
Q 3597 1084 3903 738 
L 3525 416 
Q 3291 769 2675 1025 
L 2888 1222 
L 1403 1222 
L 1403 3028 
L 5006 3028 
L 5006 1222 
z
M 4525 2363 
L 4525 2584 
L 1881 2584 
L 1881 2363 
L 4525 2363 
z
M 4525 1691 
L 4525 1966 
L 1881 1966 
L 1881 1691 
L 4525 1691 
z
M 6138 153 
L 5772 -191 
Q 5372 419 4709 678 
L 5094 1006 
Q 5622 822 6138 153 
z
M 1806 653 
Q 1369 122 550 -178 
L 275 256 
Q 1081 459 1478 978 
L 1806 653 
z
M 4647 494 
Q 4525 28 4365 -139 
Q 4206 -306 3853 -306 
L 2503 -306 
Q 2009 -250 2009 372 
L 2009 884 
L 2491 884 
L 2491 341 
Q 2491 159 2650 159 
L 3891 159 
Q 4031 159 4097 366 
L 4191 672 
L 4647 494 
z
" transform="scale(0.015625)"/>
       <path id="ArialUnicodeMS-76f4" d="M 5919 4359 
L 3763 4359 
L 3738 3909 
L 5203 3909 
L 5203 728 
L 1941 728 
L 1941 3909 
L 3219 3909 
L 3256 4359 
L 609 4359 
L 609 4825 
L 3297 4825 
L 3322 5344 
L 3834 5300 
L 3803 4825 
L 5919 4825 
L 5919 4359 
z
M 4716 2975 
L 4716 3444 
L 2425 3444 
L 2425 2975 
L 4716 2975 
z
M 4716 2100 
L 4716 2553 
L 2425 2553 
L 2425 2100 
L 4716 2100 
z
M 4716 1197 
L 4716 1656 
L 2425 1656 
L 2425 1197 
L 4716 1197 
z
M 6075 -166 
L 1191 -166 
L 1191 -447 
L 678 -447 
L 678 3541 
L 1191 3541 
L 1191 300 
L 6075 300 
L 6075 -166 
z
" transform="scale(0.015625)"/>
       <path id="ArialUnicodeMS-64ad" d="M 6216 2194 
L 5869 1813 
Q 5753 1856 5484 2053 
L 5484 -428 
L 5031 -428 
L 5031 -19 
L 3072 -19 
L 3072 -428 
L 2584 -428 
L 2584 1991 
L 2144 1759 
L 1856 2175 
Q 2847 2531 3309 3225 
L 2150 3225 
L 2150 3694 
L 3034 3694 
Q 2866 4050 2503 4294 
L 2803 4481 
L 2472 4453 
L 2247 4903 
Q 4188 4913 5428 5306 
L 5825 4972 
Q 5200 4725 4256 4609 
L 4256 3694 
L 5888 3694 
L 5888 3225 
L 4916 3225 
Q 5291 2638 6216 2194 
z
M 3769 3694 
L 3769 4544 
Q 3494 4503 2988 4494 
Q 3278 4241 3494 3809 
L 3181 3681 
L 3769 3694 
z
M 5338 2175 
Q 4784 2503 4384 3225 
L 4256 3225 
L 4256 2259 
L 3769 2259 
L 3769 3097 
L 3750 3097 
Q 3481 2553 2881 2181 
L 2881 2175 
L 5338 2175 
z
M 5031 1300 
L 5031 1709 
L 4281 1709 
L 4281 1300 
L 5031 1300 
z
M 3794 1300 
L 3794 1709 
L 3072 1709 
L 3072 1300 
L 3794 1300 
z
M 5031 447 
L 5031 856 
L 4281 856 
L 4281 447 
L 5031 447 
z
M 3794 447 
L 3794 856 
L 3072 856 
L 3072 447 
L 3794 447 
z
M 2259 2484 
L 1631 2169 
L 1631 50 
Q 1631 -444 903 -444 
Q 753 -444 634 -434 
L 453 50 
Q 728 19 903 19 
Q 1059 19 1103 51 
Q 1147 84 1147 244 
L 1147 1984 
Q 813 1800 500 1672 
L 184 2069 
Q 763 2297 1147 2491 
L 1147 3713 
L 378 3713 
L 378 4178 
L 1147 4178 
L 1147 5281 
L 1631 5281 
L 1631 4178 
L 2259 4178 
L 2259 3713 
L 1631 3713 
L 1631 2694 
L 2259 2988 
L 2259 2484 
z
M 5459 4391 
Q 5284 3984 4916 3719 
L 4531 3928 
Q 4919 4259 5088 4628 
L 5459 4391 
z
" transform="scale(0.015625)"/>
       <path id="ArialUnicodeMS-7d2f" d="M 5997 1025 
L 5581 691 
Q 5316 1013 5197 1119 
L 3431 1056 
L 3431 -403 
L 2944 -403 
L 2944 1063 
L 781 1006 
L 616 1472 
L 1759 1472 
L 2131 1672 
Q 1350 2422 997 2625 
L 1416 2925 
L 1819 2619 
Q 2541 3038 2572 3059 
L 1031 3059 
L 1031 5172 
L 5369 5172 
L 5369 3059 
L 3116 3059 
L 3256 2963 
Q 3006 2791 2163 2303 
Q 2316 2169 2559 1919 
Q 3859 2628 4409 3028 
L 4838 2706 
Q 3569 1909 2619 1484 
L 4750 1528 
L 4116 1900 
L 4513 2194 
Q 5428 1738 5997 1025 
z
M 4884 4341 
L 4884 4703 
L 3450 4703 
L 3450 4341 
L 4884 4341 
z
M 2969 4703 
L 1516 4703 
L 1516 4341 
L 2963 4341 
L 2969 4703 
z
M 4884 3525 
L 4884 3897 
L 3450 3897 
L 3450 3525 
L 4884 3525 
z
M 2969 3525 
L 2969 3897 
L 1516 3897 
L 1516 3525 
L 2969 3525 
z
M 6034 244 
L 5778 -159 
Q 4997 381 3794 588 
L 4078 984 
Q 5275 753 6034 244 
z
M 2650 622 
Q 1806 31 678 -122 
L 325 306 
Q 1581 431 2322 947 
L 2650 622 
z
" transform="scale(0.015625)"/>
       <path id="ArialUnicodeMS-8ba1" d="M 2075 4422 
L 1672 4116 
Q 1431 4616 856 5081 
L 1203 5375 
Q 1741 5006 2075 4422 
z
M 5997 2956 
L 4506 2956 
L 4506 -422 
L 4019 -422 
L 4019 2956 
L 2528 2956 
L 2528 3425 
L 4019 3425 
L 4019 5325 
L 4506 5325 
L 4506 3425 
L 5997 3425 
L 5997 2956 
z
M 2853 384 
L 1600 -306 
L 1313 103 
Q 1409 203 1409 372 
L 1409 3116 
L 475 3116 
L 475 3584 
L 1894 3584 
L 1894 391 
L 2853 916 
L 2853 384 
z
" transform="scale(0.015625)"/>
       <path id="ArialUnicodeMS-6709" d="M 5991 4031 
L 2547 4031 
Q 2403 3600 2316 3438 
L 5216 3438 
L 5216 166 
Q 5178 -269 4550 -269 
L 4031 -269 
L 3809 225 
Q 4103 184 4447 184 
Q 4728 184 4728 300 
L 4728 934 
L 2322 934 
L 2322 -416 
L 1813 -416 
L 1813 2656 
Q 1644 2369 738 1434 
L 288 1728 
Q 1619 2903 2022 4031 
L 678 4031 
L 678 4500 
L 2203 4500 
Q 2288 4700 2450 5403 
L 2944 5294 
Q 2884 5041 2731 4500 
L 5991 4500 
L 5991 4031 
z
M 4728 2450 
L 4728 2969 
L 2322 2969 
L 2322 2450 
L 4728 2450 
z
M 4728 1403 
L 4728 1984 
L 2322 1984 
L 2322 1403 
L 4728 1403 
z
" transform="scale(0.015625)"/>
       <path id="ArialUnicodeMS-6548" d="M 6119 -38 
L 5747 -409 
Q 5044 116 4609 756 
Q 4109 116 3384 -403 
L 3009 -63 
Q 3956 584 4341 1197 
Q 4041 1756 3866 2534 
Q 3672 2144 3450 1850 
L 3022 2081 
Q 3528 2766 3722 3500 
Q 3916 4234 3916 5338 
L 4366 5259 
Q 4384 4781 4306 4072 
L 5953 4072 
L 5953 3603 
L 5569 3603 
Q 5491 2219 4884 1184 
Q 5456 391 6119 -38 
z
M 5063 3603 
L 4231 3603 
L 4166 3322 
Q 4375 2238 4628 1716 
Q 5025 2469 5063 3603 
z
M 3359 3878 
L 569 3878 
L 569 4347 
L 1753 4347 
L 1753 5184 
L 2253 5184 
L 2253 4347 
L 3359 4347 
L 3359 3878 
z
M 1656 3641 
Q 1409 2850 775 2419 
L 384 2719 
Q 953 3006 1234 3803 
L 1656 3641 
z
M 3366 2803 
L 2969 2553 
Q 2688 3184 2150 3547 
L 2559 3794 
Q 3134 3359 3366 2803 
z
M 3278 628 
L 2888 281 
Q 2581 716 2234 1063 
Q 1747 269 769 -306 
L 469 103 
Q 1353 613 1869 1416 
Q 1272 2016 984 2163 
L 1344 2456 
Q 1422 2409 2113 1838 
Q 2219 2069 2375 2650 
L 2797 2456 
Q 2691 1897 2491 1503 
Q 2981 1028 3278 628 
z
" transform="scale(0.015625)"/>
       <path id="ArialUnicodeMS-5230" d="M 5791 109 
Q 5791 -113 5609 -264 
Q 5428 -416 5197 -416 
L 4628 -416 
L 4397 122 
Q 4809 56 5031 56 
Q 5306 56 5306 300 
L 5306 5288 
L 5791 5288 
L 5791 109 
z
M 4050 4513 
L 2381 4513 
Q 2147 3847 1716 3156 
L 3144 3238 
Q 2884 3613 2613 3847 
L 3047 4050 
Q 3706 3506 3981 2631 
L 3541 2369 
Q 3478 2572 3359 2809 
L 722 2631 
L 544 3109 
L 1166 3144 
Q 1638 3966 1850 4513 
L 556 4513 
L 556 4978 
L 4050 4978 
L 4050 4513 
z
M 4750 984 
L 4263 984 
L 4263 4556 
L 4750 4556 
L 4750 984 
z
M 3944 213 
L 641 -319 
L 416 159 
Q 881 181 2003 378 
L 2003 1344 
L 775 1344 
L 775 1813 
L 2003 1813 
L 2003 2553 
L 2491 2553 
L 2491 1813 
L 3700 1813 
L 3700 1344 
L 2491 1344 
L 2491 459 
L 3944 666 
L 3944 213 
z
" transform="scale(0.015625)"/>
       <path id="ArialUnicodeMS-573a" d="M 2413 1441 
L 469 738 
L 184 1172 
Q 506 1247 1147 1453 
L 1147 3138 
L 359 3138 
L 359 3603 
L 1147 3603 
L 1147 5172 
L 1600 5172 
L 1600 3603 
L 2413 3603 
L 2413 3138 
L 1600 3138 
L 1600 1619 
L 2413 1900 
L 2413 1441 
z
M 5741 3091 
Q 5709 2600 5642 2001 
Q 5575 1403 5489 862 
Q 5403 322 5350 100 
Q 5297 -122 5175 -215 
Q 5053 -309 4901 -350 
Q 4750 -391 4659 -366 
L 4084 -206 
L 4000 313 
Q 4700 103 4775 103 
Q 4872 103 4939 398 
Q 5006 694 5104 1339 
Q 5203 1984 5253 2650 
L 4844 2650 
Q 4428 791 2797 -403 
L 2456 -44 
Q 4069 1181 4378 2650 
L 3859 2650 
Q 3697 1994 3198 1378 
Q 2700 763 2094 428 
L 1772 788 
Q 3078 1553 3378 2650 
L 2675 2650 
L 2675 3091 
Q 3497 3641 4469 4469 
L 2363 4469 
L 2363 4934 
L 5241 4934 
L 5241 4531 
Q 4103 3544 3450 3097 
L 3450 3091 
L 5741 3091 
z
" transform="scale(0.015625)"/>
       <path id="ArialUnicodeMS-9608" d="M 2234 4281 
L 1797 4025 
Q 1506 4631 1113 4972 
L 1478 5234 
Q 2050 4769 2234 4281 
z
M 5575 19 
Q 5575 -144 5433 -264 
Q 5291 -384 5113 -384 
L 4609 -384 
L 4475 84 
L 4991 63 
Q 5119 63 5119 213 
L 5119 4428 
L 2578 4428 
L 2578 4863 
L 5575 4863 
L 5575 19 
z
M 1106 -441 
L 628 -441 
L 628 4397 
L 1106 4397 
L 1106 -441 
z
M 4997 1050 
Q 4947 528 4844 362 
Q 4741 197 4569 197 
Q 4291 197 3775 941 
Q 3159 319 2694 19 
L 2375 409 
Q 3125 866 3531 1375 
Q 3256 2022 3200 3213 
L 1350 3213 
L 1350 3647 
L 3181 3647 
L 3181 4184 
L 3634 4256 
L 3634 3647 
L 4269 3647 
Q 4181 3797 3756 4044 
L 3963 4331 
Q 4313 4191 4634 3866 
L 4422 3647 
L 4941 3647 
L 4941 3213 
L 3659 3213 
Q 3697 2228 3847 1881 
Q 4122 2428 4319 3066 
L 4744 2853 
Q 4469 1941 4078 1356 
Q 4275 972 4531 781 
Q 4556 853 4609 1259 
L 4997 1050 
z
M 2919 1581 
L 1550 1581 
L 1550 2944 
L 2919 2944 
L 2919 1581 
z
M 2463 2016 
L 2463 2509 
L 2003 2509 
L 2003 2016 
L 2463 2016 
z
M 3169 1063 
L 1491 647 
L 1241 1106 
Q 1719 1169 3169 1528 
L 3169 1063 
z
" transform="scale(0.015625)"/>
       <path id="ArialUnicodeMS-503c" d="M 6034 -172 
L 1791 -172 
L 1791 294 
L 2344 294 
L 2344 3853 
L 3425 3853 
Q 3544 4109 3609 4341 
L 1925 4341 
L 1919 4672 
Q 1841 4369 1691 3981 
L 1544 3622 
L 1544 -434 
L 1056 -434 
L 1056 2753 
Q 859 2466 634 2241 
L 238 2516 
Q 1222 3619 1588 5325 
L 2028 5172 
Q 2009 5038 1953 4806 
L 3731 4806 
Q 3772 4997 3781 5338 
L 4275 5253 
Q 4275 5013 4225 4806 
L 5813 4806 
L 5813 4341 
L 4134 4341 
Q 4091 4188 3956 3853 
L 5409 3853 
L 5409 294 
L 6034 294 
L 6034 -172 
z
M 4922 2994 
L 4922 3384 
L 2828 3384 
L 2828 2994 
L 4922 2994 
z
M 4922 2138 
L 4922 2584 
L 2828 2584 
L 2828 2138 
L 4922 2138 
z
M 4922 1241 
L 4922 1716 
L 2828 1716 
L 2828 1241 
L 4922 1241 
z
M 4922 294 
L 4922 825 
L 2828 825 
L 2828 294 
L 4922 294 
z
" transform="scale(0.015625)"/>
      </defs>
      <use xlink:href="#ArialUnicodeMS-41"/>
      <use xlink:href="#ArialUnicodeMS-2d" transform="translate(66.699219 0)"/>
      <use xlink:href="#ArialUnicodeMS-53" transform="translate(100 0)"/>
      <use xlink:href="#ArialUnicodeMS-4f" transform="translate(166.699219 0)"/>
      <use xlink:href="#ArialUnicodeMS-55" transform="translate(244.482422 0)"/>
      <use xlink:href="#ArialUnicodeMS-4c" transform="translate(316.699219 0)"/>
      <use xlink:href="#ArialUnicodeMS-20" transform="translate(372.314453 0)"/>
      <use xlink:href="#ArialUnicodeMS-4efb" transform="translate(400.097656 0)"/>
      <use xlink:href="#ArialUnicodeMS-610f" transform="translate(500.097656 0)"/>
      <use xlink:href="#ArialUnicodeMS-76f4" transform="translate(600.097656 0)"/>
      <use xlink:href="#ArialUnicodeMS-64ad" transform="translate(700.097656 0)"/>
      <use xlink:href="#ArialUnicodeMS-7d2f" transform="translate(800.097656 0)"/>
      <use xlink:href="#ArialUnicodeMS-8ba1" transform="translate(900.097656 0)"/>
      <use xlink:href="#ArialUnicodeMS-6709" transform="translate(1000.097656 0)"/>
      <use xlink:href="#ArialUnicodeMS-6548" transform="translate(1100.097656 0)"/>
      <use xlink:href="#ArialUnicodeMS-5230" transform="translate(1200.097656 0)"/>
      <use xlink:href="#ArialUnicodeMS-573a" transform="translate(1300.097656 0)"/>
      <use xlink:href="#ArialUnicodeMS-9608" transform="translate(1400.097656 0)"/>
      <use xlink:href="#ArialUnicodeMS-503c" transform="translate(1500.097656 0)"/>
     </g>
    </g>
   </g>
   <g id="matplotlib.axis_2">
    <g id="ytick_1">
     <g id="line2d_4">
      <defs>
       <path id="mf3c2d2b9dc" d="M 0 0 
L -3.5 0 
" style="stroke: #000000; stroke-width: 0.8"/>
      </defs>
      <g>
       <use xlink:href="#mf3c2d2b9dc" x="58.82" y="305.3875" style="stroke: #000000; stroke-width: 0.8"/>
      </g>
     </g>
     <g id="text_5">
      <!-- 0 -->
      <g transform="translate(46.259063 308.966406) scale(0.1 -0.1)">
       <defs>
        <path id="ArialUnicodeMS-30" d="M 1778 4603 
Q 3272 4603 3272 2259 
Q 3272 1075 2886 498 
Q 2500 -78 1778 -78 
Q 288 -78 288 2259 
Q 288 3444 673 4023 
Q 1059 4603 1778 4603 
z
M 1778 384 
Q 2231 384 2462 823 
Q 2694 1263 2694 2259 
Q 2694 2953 2592 3351 
Q 2491 3750 2286 3945 
Q 2081 4141 1772 4141 
Q 1319 4141 1091 3694 
Q 863 3247 863 2259 
Q 863 1575 966 1175 
Q 1069 775 1272 579 
Q 1475 384 1778 384 
z
" transform="scale(0.015625)"/>
       </defs>
       <use xlink:href="#ArialUnicodeMS-30"/>
      </g>
     </g>
    </g>
    <g id="ytick_2">
     <g id="line2d_5">
      <g>
       <use xlink:href="#mf3c2d2b9dc" x="58.82" y="262.388789" style="stroke: #000000; stroke-width: 0.8"/>
      </g>
     </g>
     <g id="text_6">
      <!-- 5000 -->
      <g transform="translate(29.57625 265.967695) scale(0.1 -0.1)">
       <use xlink:href="#ArialUnicodeMS-35"/>
       <use xlink:href="#ArialUnicodeMS-30" transform="translate(55.615234 0)"/>
       <use xlink:href="#ArialUnicodeMS-30" transform="translate(111.230469 0)"/>
       <use xlink:href="#ArialUnicodeMS-30" transform="translate(166.845703 0)"/>
      </g>
     </g>
    </g>
    <g id="ytick_3">
     <g id="line2d_6">
      <g>
       <use xlink:href="#mf3c2d2b9dc" x="58.82" y="219.390078" style="stroke: #000000; stroke-width: 0.8"/>
      </g>
     </g>
     <g id="text_7">
      <!-- 10000 -->
      <g transform="translate(24.015313 222.968984) scale(0.1 -0.1)">
       <defs>
        <path id="ArialUnicodeMS-31" d="M 2400 0 
L 1838 0 
L 1838 3584 
Q 1416 3184 709 2906 
L 709 3450 
Q 1681 3916 2034 4603 
L 2400 4603 
L 2400 0 
z
" transform="scale(0.015625)"/>
       </defs>
       <use xlink:href="#ArialUnicodeMS-31"/>
       <use xlink:href="#ArialUnicodeMS-30" transform="translate(55.615234 0)"/>
       <use xlink:href="#ArialUnicodeMS-30" transform="translate(111.230469 0)"/>
       <use xlink:href="#ArialUnicodeMS-30" transform="translate(166.845703 0)"/>
       <use xlink:href="#ArialUnicodeMS-30" transform="translate(222.460938 0)"/>
      </g>
     </g>
    </g>
    <g id="ytick_4">
     <g id="line2d_7">
      <g>
       <use xlink:href="#mf3c2d2b9dc" x="58.82" y="176.391366" style="stroke: #000000; stroke-width: 0.8"/>
      </g>
     </g>
     <g id="text_8">
      <!-- 15000 -->
      <g transform="translate(24.015313 179.970273) scale(0.1 -0.1)">
       <use xlink:href="#ArialUnicodeMS-31"/>
       <use xlink:href="#ArialUnicodeMS-35" transform="translate(55.615234 0)"/>
       <use xlink:href="#ArialUnicodeMS-30" transform="translate(111.230469 0)"/>
       <use xlink:href="#ArialUnicodeMS-30" transform="translate(166.845703 0)"/>
       <use xlink:href="#ArialUnicodeMS-30" transform="translate(222.460938 0)"/>
      </g>
     </g>
    </g>
    <g id="ytick_5">
     <g id="line2d_8">
      <g>
       <use xlink:href="#mf3c2d2b9dc" x="58.82" y="133.392655" style="stroke: #000000; stroke-width: 0.8"/>
      </g>
     </g>
     <g id="text_9">
      <!-- 20000 -->
      <g transform="translate(24.015313 136.971562) scale(0.1 -0.1)">
       <defs>
        <path id="ArialUnicodeMS-32" d="M 3231 0 
L 197 0 
Q 197 388 467 784 
Q 738 1181 1478 1778 
Q 1931 2141 2287 2539 
Q 2644 2938 2644 3341 
Q 2644 3688 2398 3914 
Q 2153 4141 1778 4141 
Q 1400 4141 1144 3908 
Q 888 3675 884 3213 
L 306 3278 
Q 359 3922 764 4262 
Q 1169 4603 1791 4603 
Q 2466 4603 2842 4229 
Q 3219 3856 3219 3328 
Q 3219 2888 2901 2436 
Q 2584 1984 1638 1228 
Q 1141 831 978 544 
L 3231 544 
L 3231 0 
z
" transform="scale(0.015625)"/>
       </defs>
       <use xlink:href="#ArialUnicodeMS-32"/>
       <use xlink:href="#ArialUnicodeMS-30" transform="translate(55.615234 0)"/>
       <use xlink:href="#ArialUnicodeMS-30" transform="translate(111.230469 0)"/>
       <use xlink:href="#ArialUnicodeMS-30" transform="translate(166.845703 0)"/>
       <use xlink:href="#ArialUnicodeMS-30" transform="translate(222.460938 0)"/>
      </g>
     </g>
    </g>
    <g id="ytick_6">
     <g id="line2d_9">
      <g>
       <use xlink:href="#mf3c2d2b9dc" x="58.82" y="90.393944" style="stroke: #000000; stroke-width: 0.8"/>
      </g>
     </g>
     <g id="text_10">
      <!-- 25000 -->
      <g transform="translate(24.015313 93.97285) scale(0.1 -0.1)">
       <use xlink:href="#ArialUnicodeMS-32"/>
       <use xlink:href="#ArialUnicodeMS-35" transform="translate(55.615234 0)"/>
       <use xlink:href="#ArialUnicodeMS-30" transform="translate(111.230469 0)"/>
       <use xlink:href="#ArialUnicodeMS-30" transform="translate(166.845703 0)"/>
       <use xlink:href="#ArialUnicodeMS-30" transform="translate(222.460938 0)"/>
      </g>
     </g>
    </g>
    <g id="ytick_7">
     <g id="line2d_10">
      <g>
       <use xlink:href="#mf3c2d2b9dc" x="58.82" y="47.395233" style="stroke: #000000; stroke-width: 0.8"/>
      </g>
     </g>
     <g id="text_11">
      <!-- 30000 -->
      <g transform="translate(24.015313 50.974139) scale(0.1 -0.1)">
       <use xlink:href="#ArialUnicodeMS-33"/>
       <use xlink:href="#ArialUnicodeMS-30" transform="translate(55.615234 0)"/>
       <use xlink:href="#ArialUnicodeMS-30" transform="translate(111.230469 0)"/>
       <use xlink:href="#ArialUnicodeMS-30" transform="translate(166.845703 0)"/>
       <use xlink:href="#ArialUnicodeMS-30" transform="translate(222.460938 0)"/>
      </g>
     </g>
    </g>
    <g id="text_12">
     <!-- 人数 -->
     <g transform="translate(18.023125 175.99875) rotate(-90) scale(0.1 -0.1)">
      <defs>
       <path id="ArialUnicodeMS-4eba" d="M 6034 109 
L 5663 -306 
Q 3916 569 3213 2272 
Q 2581 763 838 -288 
L 453 91 
Q 1166 503 1692 1025 
Q 2219 1547 2522 2075 
Q 2825 2603 2912 3243 
Q 3000 3884 3009 5159 
L 3519 5159 
Q 3525 4763 3475 4111 
Q 3425 3459 3425 3078 
Q 3425 2813 3754 2188 
Q 4084 1563 4632 1020 
Q 5181 478 6034 109 
z
" transform="scale(0.015625)"/>
       <path id="ArialUnicodeMS-6570" d="M 6138 19 
L 5806 -378 
Q 5031 194 4697 716 
Q 4344 144 3328 -441 
L 2981 -50 
Q 3966 434 4403 1153 
Q 4038 1834 3866 2753 
Q 3678 2356 3353 1919 
L 2950 2203 
Q 3838 3172 3963 5253 
L 4409 5125 
Q 4341 4384 4269 4006 
L 5984 4006 
L 5984 3547 
L 5619 3541 
L 5594 3341 
Q 5441 2113 4978 1191 
Q 5281 672 6138 19 
z
M 5166 3541 
L 4172 3541 
Q 4297 2419 4691 1650 
Q 5038 2513 5166 3541 
z
M 3438 3653 
L 2209 3653 
L 2209 2338 
L 1919 2338 
Q 1900 2269 1753 1931 
L 3225 1931 
L 3225 1472 
L 2913 1472 
Q 2763 991 2503 666 
Q 2947 353 3103 184 
L 2747 -172 
Q 2463 138 2150 313 
Q 1322 -225 563 -428 
L 269 6 
Q 1106 163 1684 563 
Q 1291 756 703 884 
L 1038 1472 
L 403 1472 
L 403 1931 
L 1259 1931 
Q 1328 2056 1466 2553 
L 1747 2484 
L 1747 3653 
L 1716 3653 
Q 1413 2881 678 2456 
L 378 2803 
Q 938 3091 1241 3653 
L 403 3653 
L 403 4122 
L 1747 4122 
L 1747 5228 
L 2209 5228 
L 2209 4122 
L 3438 4122 
L 3438 3653 
z
M 2406 1472 
L 1538 1472 
Q 1422 1241 1369 1153 
Q 1388 1159 2069 884 
Q 2219 1031 2406 1472 
z
M 1625 4441 
L 1288 4159 
Q 1022 4547 575 4813 
L 878 5075 
Q 1394 4844 1625 4441 
z
M 3384 4844 
Q 3097 4409 2669 4172 
L 2322 4481 
Q 2806 4759 3047 5069 
L 3384 4844 
z
M 3303 2888 
L 2944 2578 
Q 2706 3025 2291 3297 
L 2584 3566 
Q 2988 3359 3303 2888 
z
" transform="scale(0.015625)"/>
      </defs>
      <use xlink:href="#ArialUnicodeMS-4eba"/>
      <use xlink:href="#ArialUnicodeMS-6570" transform="translate(100 0)"/>
     </g>
    </g>
   </g>
   <g id="patch_6">
    <path d="M 58.82 305.3875 
L 58.82 26.61 
" style="fill: none; stroke: #000000; stroke-width: 0.8; stroke-linejoin: miter; stroke-linecap: square"/>
   </g>
   <g id="patch_7">
    <path d="M 601.2 305.3875 
L 601.2 26.61 
" style="fill: none; stroke: #000000; stroke-width: 0.8; stroke-linejoin: miter; stroke-linecap: square"/>
   </g>
   <g id="patch_8">
    <path d="M 58.82 305.3875 
L 601.2 305.3875 
" style="fill: none; stroke: #000000; stroke-width: 0.8; stroke-linejoin: miter; stroke-linecap: square"/>
   </g>
   <g id="patch_9">
    <path d="M 58.82 26.61 
L 601.2 26.61 
" style="fill: none; stroke: #000000; stroke-width: 0.8; stroke-linejoin: miter; stroke-linecap: square"/>
   </g>
   <g id="text_13">
    <!-- 27,472 -->
    <g transform="translate(140.150332 54.275225) scale(0.09 -0.09)">
     <defs>
      <path id="ArialUnicodeMS-2c" d="M 1216 0 
Q 1216 -397 1064 -606 
Q 913 -816 691 -903 
L 538 -666 
Q 888 -516 891 0 
L 575 0 
L 575 641 
L 1216 641 
L 1216 0 
z
" transform="scale(0.015625)"/>
      <path id="ArialUnicodeMS-34" d="M 3263 1094 
L 2644 1094 
L 2644 0 
L 2081 0 
L 2081 1094 
L 97 1094 
L 97 1613 
L 2181 4581 
L 2644 4581 
L 2644 1613 
L 3263 1613 
L 3263 1094 
z
M 2081 1613 
L 2081 3681 
L 2069 3681 
L 647 1613 
L 2081 1613 
z
" transform="scale(0.015625)"/>
     </defs>
     <use xlink:href="#ArialUnicodeMS-32"/>
     <use xlink:href="#ArialUnicodeMS-37" transform="translate(55.615234 0)"/>
     <use xlink:href="#ArialUnicodeMS-2c" transform="translate(111.230469 0)"/>
     <use xlink:href="#ArialUnicodeMS-34" transform="translate(139.013672 0)"/>
     <use xlink:href="#ArialUnicodeMS-37" transform="translate(194.628906 0)"/>
     <use xlink:href="#ArialUnicodeMS-32" transform="translate(250.244141 0)"/>
    </g>
    <!-- 37.0% -->
    <g transform="translate(141.153691 63.798631) scale(0.09 -0.09)">
     <defs>
      <path id="ArialUnicodeMS-2e" d="M 1209 0 
L 569 0 
L 569 641 
L 1209 641 
L 1209 0 
z
" transform="scale(0.015625)"/>
      <path id="ArialUnicodeMS-25" d="M 4325 4659 
L 1838 -159 
L 1369 -159 
L 3872 4659 
L 4325 4659 
z
M 1428 4653 
Q 1856 4653 2137 4343 
Q 2419 4034 2419 3438 
Q 2419 2850 2131 2539 
Q 1844 2228 1434 2228 
Q 1009 2228 739 2540 
Q 469 2853 469 3475 
Q 469 3984 722 4318 
Q 975 4653 1428 4653 
z
M 1441 2619 
Q 1931 2619 1931 3463 
Q 1931 4269 1441 4269 
Q 953 4269 953 3419 
Q 953 2619 1441 2619 
z
M 4250 2253 
Q 4681 2253 4961 1943 
Q 5241 1634 5241 1038 
Q 5241 600 5087 328 
Q 4934 56 4709 -58 
Q 4484 -172 4256 -172 
Q 3831 -172 3561 140 
Q 3291 453 3291 1075 
Q 3291 1584 3544 1918 
Q 3797 2253 4250 2253 
z
M 4263 219 
Q 4756 219 4756 1063 
Q 4756 1869 4263 1869 
Q 3775 1869 3775 1019 
Q 3775 219 4263 219 
z
" transform="scale(0.015625)"/>
     </defs>
     <use xlink:href="#ArialUnicodeMS-33"/>
     <use xlink:href="#ArialUnicodeMS-37" transform="translate(55.615234 0)"/>
     <use xlink:href="#ArialUnicodeMS-2e" transform="translate(111.230469 0)"/>
     <use xlink:href="#ArialUnicodeMS-30" transform="translate(139.013672 0)"/>
     <use xlink:href="#ArialUnicodeMS-25" transform="translate(194.628906 0)"/>
    </g>
   </g>
   <g id="text_14">
    <!-- 17,997 -->
    <g transform="translate(316.247734 135.757782) scale(0.09 -0.09)">
     <defs>
      <path id="ArialUnicodeMS-39" d="M 2713 2156 
Q 2547 1888 2258 1722 
Q 1969 1556 1631 1556 
Q 1066 1556 670 1970 
Q 275 2384 275 3053 
Q 275 3734 678 4168 
Q 1081 4603 1716 4603 
Q 2353 4603 2818 4106 
Q 3284 3609 3284 2388 
Q 3284 1147 2859 534 
Q 2434 -78 1644 -78 
Q 1128 -78 781 205 
Q 434 488 359 1063 
L 897 1106 
Q 1025 384 1656 384 
Q 2175 384 2450 857 
Q 2725 1331 2725 2156 
L 2713 2156 
z
M 1766 2047 
Q 2178 2047 2420 2339 
Q 2663 2631 2663 3078 
Q 2663 3531 2414 3836 
Q 2166 4141 1778 4141 
Q 1388 4141 1119 3817 
Q 850 3494 850 3034 
Q 850 2600 1114 2323 
Q 1378 2047 1766 2047 
z
" transform="scale(0.015625)"/>
     </defs>
     <use xlink:href="#ArialUnicodeMS-31"/>
     <use xlink:href="#ArialUnicodeMS-37" transform="translate(55.615234 0)"/>
     <use xlink:href="#ArialUnicodeMS-2c" transform="translate(111.230469 0)"/>
     <use xlink:href="#ArialUnicodeMS-39" transform="translate(139.013672 0)"/>
     <use xlink:href="#ArialUnicodeMS-39" transform="translate(194.628906 0)"/>
     <use xlink:href="#ArialUnicodeMS-37" transform="translate(250.244141 0)"/>
    </g>
    <!-- 24.2% -->
    <g transform="translate(317.251094 145.281188) scale(0.09 -0.09)">
     <use xlink:href="#ArialUnicodeMS-32"/>
     <use xlink:href="#ArialUnicodeMS-34" transform="translate(55.615234 0)"/>
     <use xlink:href="#ArialUnicodeMS-2e" transform="translate(111.230469 0)"/>
     <use xlink:href="#ArialUnicodeMS-32" transform="translate(139.013672 0)"/>
     <use xlink:href="#ArialUnicodeMS-25" transform="translate(194.628906 0)"/>
    </g>
   </g>
   <g id="text_15">
    <!-- 13,375 -->
    <g transform="translate(492.345137 175.505791) scale(0.09 -0.09)">
     <use xlink:href="#ArialUnicodeMS-31"/>
     <use xlink:href="#ArialUnicodeMS-33" transform="translate(55.615234 0)"/>
     <use xlink:href="#ArialUnicodeMS-2c" transform="translate(111.230469 0)"/>
     <use xlink:href="#ArialUnicodeMS-33" transform="translate(139.013672 0)"/>
     <use xlink:href="#ArialUnicodeMS-37" transform="translate(194.628906 0)"/>
     <use xlink:href="#ArialUnicodeMS-35" transform="translate(250.244141 0)"/>
    </g>
    <!-- 18.0% -->
    <g transform="translate(493.348496 185.029197) scale(0.09 -0.09)">
     <defs>
      <path id="ArialUnicodeMS-38" d="M 2425 2478 
Q 3284 2203 3284 1306 
Q 3284 716 2862 319 
Q 2441 -78 1778 -78 
Q 1109 -78 689 322 
Q 269 722 269 1325 
Q 269 1759 505 2084 
Q 741 2409 1141 2478 
L 1141 2491 
Q 453 2703 453 3419 
Q 453 3925 815 4264 
Q 1178 4603 1766 4603 
Q 2363 4603 2730 4253 
Q 3097 3903 3097 3406 
Q 3097 2731 2425 2491 
L 2425 2478 
z
M 1778 2700 
Q 2094 2700 2308 2901 
Q 2522 3103 2522 3406 
Q 2522 3716 2305 3928 
Q 2088 4141 1772 4141 
Q 1450 4141 1240 3931 
Q 1031 3722 1031 3438 
Q 1031 3097 1247 2898 
Q 1463 2700 1778 2700 
z
M 1778 384 
Q 2175 384 2440 640 
Q 2706 897 2706 1306 
Q 2706 1716 2432 1978 
Q 2159 2241 1766 2241 
Q 1356 2241 1100 1970 
Q 844 1700 844 1319 
Q 844 922 1108 653 
Q 1372 384 1778 384 
z
" transform="scale(0.015625)"/>
     </defs>
     <use xlink:href="#ArialUnicodeMS-31"/>
     <use xlink:href="#ArialUnicodeMS-38" transform="translate(55.615234 0)"/>
     <use xlink:href="#ArialUnicodeMS-2e" transform="translate(111.230469 0)"/>
     <use xlink:href="#ArialUnicodeMS-30" transform="translate(139.013672 0)"/>
     <use xlink:href="#ArialUnicodeMS-25" transform="translate(194.628906 0)"/>
    </g>
   </g>
   <g id="text_16">
    <!-- 核心 kg 人数 -->
    <g transform="translate(296.339687 20.61) scale(0.12 -0.12)">
     <defs>
      <path id="ArialUnicodeMS-6838" d="M 5966 3994 
L 4128 3994 
Q 3825 3391 3391 2950 
L 4063 2606 
Q 4431 3025 4806 3763 
L 5259 3513 
Q 4803 2631 4236 2029 
Q 3669 1428 2650 878 
L 2278 1253 
Q 3197 1716 3719 2222 
Q 2584 2797 2438 2841 
L 2700 3297 
L 2963 3169 
Q 3325 3556 3559 3994 
L 2553 3994 
L 2553 3566 
L 1791 3566 
L 1791 2938 
L 1978 3028 
Q 2478 2606 2753 1953 
L 2309 1678 
Q 2163 2138 1791 2547 
L 1791 -428 
L 1306 -428 
L 1306 2284 
Q 1094 1644 603 953 
L 213 1241 
Q 963 2250 1269 3566 
L 428 3566 
L 428 4031 
L 1306 4031 
L 1306 5281 
L 1791 5281 
L 1791 4031 
L 2419 4031 
L 2419 4459 
L 3897 4459 
L 3897 5275 
L 4384 5275 
L 4384 4459 
L 5966 4459 
L 5966 3994 
z
M 6075 0 
L 5691 -391 
Q 5141 294 4353 666 
Q 3631 75 2497 -403 
L 2181 25 
Q 4378 822 5319 2644 
L 5741 2394 
Q 5241 1528 4722 1013 
Q 5519 634 6075 0 
z
" transform="scale(0.015625)"/>
      <path id="ArialUnicodeMS-5fc3" d="M 3994 3597 
L 3584 3291 
Q 2934 4294 2047 4831 
L 2491 5125 
Q 3434 4488 3994 3597 
z
M 4838 1484 
Q 4719 556 4523 223 
Q 4328 -109 3903 -109 
L 2753 -109 
Q 2366 -109 2194 114 
Q 2022 338 2022 538 
L 2022 3713 
L 2509 3713 
L 2509 588 
Q 2541 488 2634 433 
Q 2728 378 2759 378 
L 3884 378 
Q 4231 378 4325 1678 
L 4838 1484 
z
M 6131 1247 
L 5663 1013 
Q 5125 2306 4353 3109 
Q 4781 3347 4794 3347 
Q 5469 2675 6131 1247 
z
M 1631 3128 
Q 1447 2084 703 903 
L 263 1141 
Q 1019 2375 1184 3316 
L 1631 3128 
z
" transform="scale(0.015625)"/>
      <path id="ArialUnicodeMS-6b" d="M 3175 0 
L 2484 0 
L 1381 1697 
L 984 1319 
L 984 0 
L 422 0 
L 422 4581 
L 984 4581 
L 984 1972 
L 2316 3316 
L 3047 3316 
L 1778 2088 
L 3175 0 
z
" transform="scale(0.015625)"/>
      <path id="ArialUnicodeMS-67" d="M 3144 447 
Q 3144 -259 3003 -607 
Q 2863 -956 2503 -1150 
Q 2144 -1344 1644 -1344 
Q 1081 -1344 706 -1094 
Q 331 -844 331 -275 
L 878 -359 
Q 909 -622 1098 -753 
Q 1288 -884 1638 -884 
Q 2075 -884 2278 -706 
Q 2481 -528 2526 -272 
Q 2572 -16 2572 434 
Q 2206 0 1650 0 
Q 1003 0 611 478 
Q 219 956 219 1684 
Q 219 2416 600 2903 
Q 981 3391 1656 3391 
Q 2244 3391 2613 2919 
L 2625 2919 
L 2625 3316 
L 3144 3316 
L 3144 447 
z
M 1703 459 
Q 2063 459 2341 745 
Q 2619 1031 2619 1703 
Q 2619 2297 2353 2614 
Q 2088 2931 1697 2931 
Q 1297 2931 1045 2606 
Q 794 2281 794 1716 
Q 794 1063 1058 761 
Q 1322 459 1703 459 
z
" transform="scale(0.015625)"/>
     </defs>
     <use xlink:href="#ArialUnicodeMS-6838"/>
     <use xlink:href="#ArialUnicodeMS-5fc3" transform="translate(100 0)"/>
     <use xlink:href="#ArialUnicodeMS-20" transform="translate(200 0)"/>
     <use xlink:href="#ArialUnicodeMS-6b" transform="translate(227.783203 0)"/>
     <use xlink:href="#ArialUnicodeMS-67" transform="translate(277.783203 0)"/>
     <use xlink:href="#ArialUnicodeMS-20" transform="translate(333.398438 0)"/>
     <use xlink:href="#ArialUnicodeMS-4eba" transform="translate(361.181641 0)"/>
     <use xlink:href="#ArialUnicodeMS-6570" transform="translate(461.181641 0)"/>
    </g>
   </g>
  </g>
 </g>
 <defs>
  <clipPath id="p7634c411a0">
   <rect x="58.82" y="26.61" width="542.38" height="278.7775"/>
  </clipPath>
 </defs>
</svg>
