<svg xmlns="http://www.w3.org/2000/svg" width="1180" height="720" viewBox="0 0 1180 720">
<rect width="1180" height="720" fill="white"/>
<text x="590.0" y="36" font-family="'Microsoft YaHei','PingFang SC','Noto Sans CJK SC',sans-serif" font-size="24" font-weight="bold" text-anchor="middle" fill="#1f2328">乃琳_鸣潮 人群三人后续承接解释性阈值</text>
<text x="590.0" y="60" font-family="'Microsoft YaHei','PingFang SC','Noto Sans CJK SC',sans-serif" font-size="12" font-weight="normal" text-anchor="middle" fill="#57606a">source_user_count=31609 ｜ 口径：首次进入 source 后的 post_source 场次</text>
<text x="110" y="70" font-family="'Microsoft YaHei','PingFang SC','Noto Sans CJK SC',sans-serif" font-size="16" font-weight="bold" text-anchor="start" fill="#1f2328">后续到场阈值（1 / 2 / 3 / 5 场）</text>
<line x1="110" y1="90.0" x2="1130" y2="90.0" stroke="#d0d7de" stroke-width="1" stroke-dasharray="4 4"/>
<text x="100" y="94.0" font-family="'Microsoft YaHei','PingFang SC','Noto Sans CJK SC',sans-serif" font-size="11" font-weight="normal" text-anchor="end" fill="#57606a">100.0%</text>
<line x1="110" y1="134.0" x2="1130" y2="134.0" stroke="#d0d7de" stroke-width="1" stroke-dasharray="4 4"/>
<text x="100" y="138.0" font-family="'Microsoft YaHei','PingFang SC','Noto Sans CJK SC',sans-serif" font-size="11" font-weight="normal" text-anchor="end" fill="#57606a">80.0%</text>
<line x1="110" y1="178.0" x2="1130" y2="178.0" stroke="#d0d7de" stroke-width="1" stroke-dasharray="4 4"/>
<text x="100" y="182.0" font-family="'Microsoft YaHei','PingFang SC','Noto Sans CJK SC',sans-serif" font-size="11" font-weight="normal" text-anchor="end" fill="#57606a">60.0%</text>
<line x1="110" y1="222.0" x2="1130" y2="222.0" stroke="#d0d7de" stroke-width="1" stroke-dasharray="4 4"/>
<text x="100" y="226.0" font-family="'Microsoft YaHei','PingFang SC','Noto Sans CJK SC',sans-serif" font-size="11" font-weight="normal" text-anchor="end" fill="#57606a">40.0%</text>
<line x1="110" y1="266.0" x2="1130" y2="266.0" stroke="#d0d7de" stroke-width="1" stroke-dasharray="4 4"/>
<text x="100" y="270.0" font-family="'Microsoft YaHei','PingFang SC','Noto Sans CJK SC',sans-serif" font-size="11" font-weight="normal" text-anchor="end" fill="#57606a">20.0%</text>
<line x1="110" y1="310.0" x2="1130" y2="310.0" stroke="#d0d7de" stroke-width="1" stroke-dasharray="4 4"/>
<text x="100" y="314.0" font-family="'Microsoft YaHei','PingFang SC','Noto Sans CJK SC',sans-serif" font-size="11" font-weight="normal" text-anchor="end" fill="#57606a">0.0%</text>
<line x1="110.0" y1="90" x2="110.0" y2="310" stroke="#eef2f6" stroke-width="1"/>
<text x="110.0" y="330" font-family="'Microsoft YaHei','PingFang SC','Noto Sans CJK SC',sans-serif" font-size="11" font-weight="normal" text-anchor="middle" fill="#57606a">1</text>
<line x1="450.0" y1="90" x2="450.0" y2="310" stroke="#eef2f6" stroke-width="1"/>
<text x="450.0" y="330" font-family="'Microsoft YaHei','PingFang SC','Noto Sans CJK SC',sans-serif" font-size="11" font-weight="normal" text-anchor="middle" fill="#57606a">2</text>
<line x1="790.0" y1="90" x2="790.0" y2="310" stroke="#eef2f6" stroke-width="1"/>
<text x="790.0" y="330" font-family="'Microsoft YaHei','PingFang SC','Noto Sans CJK SC',sans-serif" font-size="11" font-weight="normal" text-anchor="middle" fill="#57606a">3</text>
<line x1="1130.0" y1="90" x2="1130.0" y2="310" stroke="#eef2f6" stroke-width="1"/>
<text x="1130.0" y="330" font-family="'Microsoft YaHei','PingFang SC','Noto Sans CJK SC',sans-serif" font-size="11" font-weight="normal" text-anchor="middle" fill="#57606a">5</text>
<polyline fill="none" stroke="#5B8FF9" stroke-width="3" points="110.0,170.454 450.0,204.44400000000002 790.0,227.016 1130.0,256.188"/>
<circle cx="110.0" cy="170.454" r="3.5" fill="#5B8FF9"/>
<circle cx="450.0" cy="204.44400000000002" r="3.5" fill="#5B8FF9"/>
<circle cx="790.0" cy="227.016" r="3.5" fill="#5B8FF9"/>
<circle cx="1130.0" cy="256.188" r="3.5" fill="#5B8FF9"/>
<text x="1142.0" y="260.188" font-family="'Microsoft YaHei','PingFang SC','Noto Sans CJK SC',sans-serif" font-size="12" font-weight="normal" text-anchor="start" fill="#5B8FF9">嘉然</text>
<polyline fill="none" stroke="#61DDAA" stroke-width="3" points="110.0,180.024 450.0,219.008 790.0,242.9 1130.0,271.786"/>
<circle cx="110.0" cy="180.024" r="3.5" fill="#61DDAA"/>
<circle cx="450.0" cy="219.008" r="3.5" fill="#61DDAA"/>
<circle cx="790.0" cy="242.9" r="3.5" fill="#61DDAA"/>
<circle cx="1130.0" cy="271.786" r="3.5" fill="#61DDAA"/>
<text x="1142.0" y="275.786" font-family="'Microsoft YaHei','PingFang SC','Noto Sans CJK SC',sans-serif" font-size="12" font-weight="normal" text-anchor="start" fill="#61DDAA">乃琳</text>
<polyline fill="none" stroke="#9270CA" stroke-width="3" points="110.0,265.582 450.0,287.098 790.0,296.00800000000004 1130.0,304.808"/>
<circle cx="110.0" cy="265.582" r="3.5" fill="#9270CA"/>
<circle cx="450.0" cy="287.098" r="3.5" fill="#9270CA"/>
<circle cx="790.0" cy="296.00800000000004" r="3.5" fill="#9270CA"/>
<circle cx="1130.0" cy="304.808" r="3.5" fill="#9270CA"/>
<text x="1142.0" y="308.808" font-family="'Microsoft YaHei','PingFang SC','Noto Sans CJK SC',sans-serif" font-size="12" font-weight="normal" text-anchor="start" fill="#9270CA">贝拉</text>
<text x="110" y="380" font-family="'Microsoft YaHei','PingFang SC','Noto Sans CJK SC',sans-serif" font-size="16" font-weight="bold" text-anchor="start" fill="#1f2328">后续有效到场阈值（1 / 2 / 3 场）</text>
<line x1="110" y1="400.0" x2="1130" y2="400.0" stroke="#d0d7de" stroke-width="1" stroke-dasharray="4 4"/>
<text x="100" y="404.0" font-family="'Microsoft YaHei','PingFang SC','Noto Sans CJK SC',sans-serif" font-size="11" font-weight="normal" text-anchor="end" fill="#57606a">100.0%</text>
<line x1="110" y1="444.0" x2="1130" y2="444.0" stroke="#d0d7de" stroke-width="1" stroke-dasharray="4 4"/>
<text x="100" y="448.0" font-family="'Microsoft YaHei','PingFang SC','Noto Sans CJK SC',sans-serif" font-size="11" font-weight="normal" text-anchor="end" fill="#57606a">80.0%</text>
<line x1="110" y1="488.0" x2="1130" y2="488.0" stroke="#d0d7de" stroke-width="1" stroke-dasharray="4 4"/>
<text x="100" y="492.0" font-family="'Microsoft YaHei','PingFang SC','Noto Sans CJK SC',sans-serif" font-size="11" font-weight="normal" text-anchor="end" fill="#57606a">60.0%</text>
<line x1="110" y1="532.0" x2="1130" y2="532.0" stroke="#d0d7de" stroke-width="1" stroke-dasharray="4 4"/>
<text x="100" y="536.0" font-family="'Microsoft YaHei','PingFang SC','Noto Sans CJK SC',sans-serif" font-size="11" font-weight="normal" text-anchor="end" fill="#57606a">40.0%</text>
<line x1="110" y1="576.0" x2="1130" y2="576.0" stroke="#d0d7de" stroke-width="1" stroke-dasharray="4 4"/>
<text x="100" y="580.0" font-family="'Microsoft YaHei','PingFang SC','Noto Sans CJK SC',sans-serif" font-size="11" font-weight="normal" text-anchor="end" fill="#57606a">20.0%</text>
<line x1="110" y1="620.0" x2="1130" y2="620.0" stroke="#d0d7de" stroke-width="1" stroke-dasharray="4 4"/>
<text x="100" y="624.0" font-family="'Microsoft YaHei','PingFang SC','Noto Sans CJK SC',sans-serif" font-size="11" font-weight="normal" text-anchor="end" fill="#57606a">0.0%</text>
<line x1="110.0" y1="400" x2="110.0" y2="620" stroke="#eef2f6" stroke-width="1"/>
<text x="110.0" y="640" font-family="'Microsoft YaHei','PingFang SC','Noto Sans CJK SC',sans-serif" font-size="11" font-weight="normal" text-anchor="middle" fill="#57606a">1</text>
<line x1="620.0" y1="400" x2="620.0" y2="620" stroke="#eef2f6" stroke-width="1"/>
<text x="620.0" y="640" font-family="'Microsoft YaHei','PingFang SC','Noto Sans CJK SC',sans-serif" font-size="11" font-weight="normal" text-anchor="middle" fill="#57606a">2</text>
<line x1="1130.0" y1="400" x2="1130.0" y2="620" stroke="#eef2f6" stroke-width="1"/>
<text x="1130.0" y="640" font-family="'Microsoft YaHei','PingFang SC','Noto Sans CJK SC',sans-serif" font-size="11" font-weight="normal" text-anchor="middle" fill="#57606a">3</text>
<polyline fill="none" stroke="#5B8FF9" stroke-width="3" points="110.0,504.17 620.0,538.424 1130.0,558.774"/>
<circle cx="110.0" cy="504.17" r="3.5" fill="#5B8FF9"/>
<circle cx="620.0" cy="538.424" r="3.5" fill="#5B8FF9"/>
<circle cx="1130.0" cy="558.774" r="3.5" fill="#5B8FF9"/>
<text x="1142.0" y="562.774" font-family="'Microsoft YaHei','PingFang SC','Noto Sans CJK SC',sans-serif" font-size="12" font-weight="normal" text-anchor="start" fill="#5B8FF9">嘉然</text>
<polyline fill="none" stroke="#61DDAA" stroke-width="3" points="110.0,514.246 620.0,550.744 1130.0,570.808"/>
<circle cx="110.0" cy="514.246" r="3.5" fill="#61DDAA"/>
<circle cx="620.0" cy="550.744" r="3.5" fill="#61DDAA"/>
<circle cx="1130.0" cy="570.808" r="3.5" fill="#61DDAA"/>
<text x="1142.0" y="574.808" font-family="'Microsoft YaHei','PingFang SC','Noto Sans CJK SC',sans-serif" font-size="12" font-weight="normal" text-anchor="start" fill="#61DDAA">乃琳</text>
<polyline fill="none" stroke="#9270CA" stroke-width="3" points="110.0,585.02 620.0,602.642 1130.0,609.836"/>
<circle cx="110.0" cy="585.02" r="3.5" fill="#9270CA"/>
<circle cx="620.0" cy="602.642" r="3.5" fill="#9270CA"/>
<circle cx="1130.0" cy="609.836" r="3.5" fill="#9270CA"/>
<text x="1142.0" y="613.836" font-family="'Microsoft YaHei','PingFang SC','Noto Sans CJK SC',sans-serif" font-size="12" font-weight="normal" text-anchor="start" fill="#9270CA">贝拉</text>
</svg>