<svg xmlns="http://www.w3.org/2000/svg" width="1180" height="720" viewBox="0 0 1180 720">
<rect width="1180" height="720" fill="white"/>
<text x="590.0" y="36" font-family="'Microsoft YaHei','PingFang SC','Noto Sans CJK SC',sans-serif" font-size="24" font-weight="bold" text-anchor="middle" fill="#1f2328">乃琳_鸣潮 人群三人后续承接解释性阈值</text>
<text x="590.0" y="60" font-family="'Microsoft YaHei','PingFang SC','Noto Sans CJK SC',sans-serif" font-size="12" font-weight="normal" text-anchor="middle" fill="#57606a">source_user_count=88450 ｜ 口径：首次进入 source 后的 post_source 场次</text>
<text x="110" y="70" font-family="'Microsoft YaHei','PingFang SC','Noto Sans CJK SC',sans-serif" font-size="16" font-weight="bold" text-anchor="start" fill="#1f2328">后续到场阈值（1 / 2 / 3 / 5 场）</text>
<line x1="110" y1="90.0" x2="1130" y2="90.0" stroke="#d0d7de" stroke-width="1" stroke-dasharray="4 4"/>
<text x="100" y="94.0" font-family="'Microsoft YaHei','PingFang SC','Noto Sans CJK SC',sans-serif" font-size="11" font-weight="normal" text-anchor="end" fill="#57606a">100.0%</text>
<line x1="110" y1="134.0" x2="1130" y2="134.0" stroke="#d0d7de" stroke-width="1" stroke-dasharray="4 4"/>
<text x="100" y="138.0" font-family="'Microsoft YaHei','PingFang SC','Noto Sans CJK SC',sans-serif" font-size="11" font-weight="normal" text-anchor="end" fill="#57606a">80.0%</text>
<line x1="110" y1="178.0" x2="1130" y2="178.0" stroke="#d0d7de" stroke-width="1" stroke-dasharray="4 4"/>
<text x="100" y="182.0" font-family="'Microsoft YaHei','PingFang SC','Noto Sans CJK SC',sans-serif" font-size="11" font-weight="normal" text-anchor="end" fill="#57606a">60.0%</text>
<line x1="110" y1="222.0" x2="1130" y2="222.0" stroke="#d0d7de" stroke-width="1" stroke-dasharray="4 4"/>
<text x="100" y="226.0" font-family="'Microsoft YaHei','PingFang SC','Noto Sans CJK SC',sans-serif" font-size="11" font-weight="normal" text-anchor="end" fill="#57606a">40.0%</text>
<line x1="110" y1="266.0" x2="1130" y2="266.0" stroke="#d0d7de" stroke-width="1" stroke-dasharray="4 4"/>
<text x="100" y="270.0" font-family="'Microsoft YaHei','PingFang SC','Noto Sans CJK SC',sans-serif" font-size="11" font-weight="normal" text-anchor="end" fill="#57606a">20.0%</text>
<line x1="110" y1="310.0" x2="1130" y2="310.0" stroke="#d0d7de" stroke-width="1" stroke-dasharray="4 4"/>
<text x="100" y="314.0" font-family="'Microsoft YaHei','PingFang SC','Noto Sans CJK SC',sans-serif" font-size="11" font-weight="normal" text-anchor="end" fill="#57606a">0.0%</text>
<line x1="110.0" y1="90" x2="110.0" y2="310" stroke="#eef2f6" stroke-width="1"/>
<text x="110.0" y="330" font-family="'Microsoft YaHei','PingFang SC','Noto Sans CJK SC',sans-serif" font-size="11" font-weight="normal" text-anchor="middle" fill="#57606a">1</text>
<line x1="450.0" y1="90" x2="450.0" y2="310" stroke="#eef2f6" stroke-width="1"/>
<text x="450.0" y="330" font-family="'Microsoft YaHei','PingFang SC','Noto Sans CJK SC',sans-serif" font-size="11" font-weight="normal" text-anchor="middle" fill="#57606a">2</text>
<line x1="790.0" y1="90" x2="790.0" y2="310" stroke="#eef2f6" stroke-width="1"/>
<text x="790.0" y="330" font-family="'Microsoft YaHei','PingFang SC','Noto Sans CJK SC',sans-serif" font-size="11" font-weight="normal" text-anchor="middle" fill="#57606a">3</text>
<line x1="1130.0" y1="90" x2="1130.0" y2="310" stroke="#eef2f6" stroke-width="1"/>
<text x="1130.0" y="330" font-family="'Microsoft YaHei','PingFang SC','Noto Sans CJK SC',sans-serif" font-size="11" font-weight="normal" text-anchor="middle" fill="#57606a">5</text>
<polyline fill="none" stroke="#5B8FF9" stroke-width="3" points="110.0,234.1 450.0,260.89599999999996 790.0,274.25 1130.0,288.682"/>
<circle cx="110.0" cy="234.1" r="3.5" fill="#5B8FF9"/>
<circle cx="450.0" cy="260.89599999999996" r="3.5" fill="#5B8FF9"/>
<circle cx="790.0" cy="274.25" r="3.5" fill="#5B8FF9"/>
<circle cx="1130.0" cy="288.682" r="3.5" fill="#5B8FF9"/>
<text x="1142.0" y="292.682" font-family="'Microsoft YaHei','PingFang SC','Noto Sans CJK SC',sans-serif" font-size="12" font-weight="normal" text-anchor="start" fill="#5B8FF9">嘉然</text>
<polyline fill="none" stroke="#61DDAA" stroke-width="3" points="110.0,221.208 450.0,252.86599999999999 790.0,267.892 1130.0,284.304"/>
<circle cx="110.0" cy="221.208" r="3.5" fill="#61DDAA"/>
<circle cx="450.0" cy="252.86599999999999" r="3.5" fill="#61DDAA"/>
<circle cx="790.0" cy="267.892" r="3.5" fill="#61DDAA"/>
<circle cx="1130.0" cy="284.304" r="3.5" fill="#61DDAA"/>
<text x="1142.0" y="288.304" font-family="'Microsoft YaHei','PingFang SC','Noto Sans CJK SC',sans-serif" font-size="12" font-weight="normal" text-anchor="start" fill="#61DDAA">乃琳</text>
<polyline fill="none" stroke="#9270CA" stroke-width="3" points="110.0,280.322 450.0,293.038 790.0,298.362 1130.0,303.13599999999997"/>
<circle cx="110.0" cy="280.322" r="3.5" fill="#9270CA"/>
<circle cx="450.0" cy="293.038" r="3.5" fill="#9270CA"/>
<circle cx="790.0" cy="298.362" r="3.5" fill="#9270CA"/>
<circle cx="1130.0" cy="303.13599999999997" r="3.5" fill="#9270CA"/>
<text x="1142.0" y="307.13599999999997" font-family="'Microsoft YaHei','PingFang SC','Noto Sans CJK SC',sans-serif" font-size="12" font-weight="normal" text-anchor="start" fill="#9270CA">贝拉</text>
<text x="110" y="380" font-family="'Microsoft YaHei','PingFang SC','Noto Sans CJK SC',sans-serif" font-size="16" font-weight="bold" text-anchor="start" fill="#1f2328">后续有效到场阈值（1 / 2 / 3 场）</text>
<line x1="110" y1="400.0" x2="1130" y2="400.0" stroke="#d0d7de" stroke-width="1" stroke-dasharray="4 4"/>
<text x="100" y="404.0" font-family="'Microsoft YaHei','PingFang SC','Noto Sans CJK SC',sans-serif" font-size="11" font-weight="normal" text-anchor="end" fill="#57606a">100.0%</text>
<line x1="110" y1="444.0" x2="1130" y2="444.0" stroke="#d0d7de" stroke-width="1" stroke-dasharray="4 4"/>
<text x="100" y="448.0" font-family="'Microsoft YaHei','PingFang SC','Noto Sans CJK SC',sans-serif" font-size="11" font-weight="normal" text-anchor="end" fill="#57606a">80.0%</text>
<line x1="110" y1="488.0" x2="1130" y2="488.0" stroke="#d0d7de" stroke-width="1" stroke-dasharray="4 4"/>
<text x="100" y="492.0" font-family="'Microsoft YaHei','PingFang SC','Noto Sans CJK SC',sans-serif" font-size="11" font-weight="normal" text-anchor="end" fill="#57606a">60.0%</text>
<line x1="110" y1="532.0" x2="1130" y2="532.0" stroke="#d0d7de" stroke-width="1" stroke-dasharray="4 4"/>
<text x="100" y="536.0" font-family="'Microsoft YaHei','PingFang SC','Noto Sans CJK SC',sans-serif" font-size="11" font-weight="normal" text-anchor="end" fill="#57606a">40.0%</text>
<line x1="110" y1="576.0" x2="1130" y2="576.0" stroke="#d0d7de" stroke-width="1" stroke-dasharray="4 4"/>
<text x="100" y="580.0" font-family="'Microsoft YaHei','PingFang SC','Noto Sans CJK SC',sans-serif" font-size="11" font-weight="normal" text-anchor="end" fill="#57606a">20.0%</text>
<line x1="110" y1="620.0" x2="1130" y2="620.0" stroke="#d0d7de" stroke-width="1" stroke-dasharray="4 4"/>
<text x="100" y="624.0" font-family="'Microsoft YaHei','PingFang SC','Noto Sans CJK SC',sans-serif" font-size="11" font-weight="normal" text-anchor="end" fill="#57606a">0.0%</text>
<line x1="110.0" y1="400" x2="110.0" y2="620" stroke="#eef2f6" stroke-width="1"/>
<text x="110.0" y="640" font-family="'Microsoft YaHei','PingFang SC','Noto Sans CJK SC',sans-serif" font-size="11" font-weight="normal" text-anchor="middle" fill="#57606a">1</text>
<line x1="620.0" y1="400" x2="620.0" y2="620" stroke="#eef2f6" stroke-width="1"/>
<text x="620.0" y="640" font-family="'Microsoft YaHei','PingFang SC','Noto Sans CJK SC',sans-serif" font-size="11" font-weight="normal" text-anchor="middle" fill="#57606a">2</text>
<line x1="1130.0" y1="400" x2="1130.0" y2="620" stroke="#eef2f6" stroke-width="1"/>
<text x="1130.0" y="640" font-family="'Microsoft YaHei','PingFang SC','Noto Sans CJK SC',sans-serif" font-size="11" font-weight="normal" text-anchor="middle" fill="#57606a">3</text>
<polyline fill="none" stroke="#5B8FF9" stroke-width="3" points="110.0,559.984 620.0,583.304 1130.0,594.172"/>
<circle cx="110.0" cy="559.984" r="3.5" fill="#5B8FF9"/>
<circle cx="620.0" cy="583.304" r="3.5" fill="#5B8FF9"/>
<circle cx="1130.0" cy="594.172" r="3.5" fill="#5B8FF9"/>
<text x="1142.0" y="598.172" font-family="'Microsoft YaHei','PingFang SC','Noto Sans CJK SC',sans-serif" font-size="12" font-weight="normal" text-anchor="start" fill="#5B8FF9">嘉然</text>
<polyline fill="none" stroke="#61DDAA" stroke-width="3" points="110.0,548.0160000000001 620.0,576.374 1130.0,588.914"/>
<circle cx="110.0" cy="548.0160000000001" r="3.5" fill="#61DDAA"/>
<circle cx="620.0" cy="576.374" r="3.5" fill="#61DDAA"/>
<circle cx="1130.0" cy="588.914" r="3.5" fill="#61DDAA"/>
<text x="1142.0" y="592.914" font-family="'Microsoft YaHei','PingFang SC','Noto Sans CJK SC',sans-serif" font-size="12" font-weight="normal" text-anchor="start" fill="#61DDAA">乃琳</text>
<polyline fill="none" stroke="#9270CA" stroke-width="3" points="110.0,596.46 620.0,607.086 1130.0,611.112"/>
<circle cx="110.0" cy="596.46" r="3.5" fill="#9270CA"/>
<circle cx="620.0" cy="607.086" r="3.5" fill="#9270CA"/>
<circle cx="1130.0" cy="611.112" r="3.5" fill="#9270CA"/>
<text x="1142.0" y="615.112" font-family="'Microsoft YaHei','PingFang SC','Noto Sans CJK SC',sans-serif" font-size="12" font-weight="normal" text-anchor="start" fill="#9270CA">贝拉</text>
</svg>