<?xml version="1.0" encoding="utf-8" standalone="no"?>
<!DOCTYPE svg PUBLIC "-//W3C//DTD SVG 1.1//EN"
  "http://www.w3.org/Graphics/SVG/1.1/DTD/svg11.dtd">
<svg xmlns:xlink="http://www.w3.org/1999/xlink" width="792pt" height="396pt" viewBox="0 0 792 396" xmlns="http://www.w3.org/2000/svg" version="1.1">
 <metadata>
  <rdf:RDF xmlns:dc="http://purl.org/dc/elements/1.1/" xmlns:cc="http://creativecommons.org/ns#" xmlns:rdf="http://www.w3.org/1999/02/22-rdf-syntax-ns#">
   <cc:Work>
    <dc:type rdf:resource="http://purl.org/dc/dcmitype/StillImage"/>
    <dc:date>2026-03-15T02:13:23.382363</dc:date>
    <dc:format>image/svg+xml</dc:format>
    <dc:creator>
     <cc:Agent>
      <dc:title>Matplotlib v3.10.8, https://matplotlib.org/</dc:title>
     </cc:Agent>
    </dc:creator>
   </cc:Work>
  </rdf:RDF>
 </metadata>
 <defs>
  <style type="text/css">*{stroke-linejoin: round; stroke-linecap: butt}</style>
 </defs>
 <g id="figure_1">
  <g id="patch_1">
   <path d="M 0 396 
L 792 396 
L 792 0 
L 0 0 
z
" style="fill: #ffffff"/>
  </g>
  <g id="axes_1">
   <g id="patch_2">
    <path d="M 58.88 368.93 
L 781.2 368.93 
L 781.2 25.7025 
L 58.88 25.7025 
z
" style="fill: #ffffff"/>
   </g>
   <g id="patch_3">
    <path d="M 91.712727 368.93 
L 183.338943 368.93 
L 183.338943 244.618504 
L 91.712727 244.618504 
z
" clip-path="url(#pe94a0894b6)" style="fill: #d9e6f2"/>
   </g>
   <g id="patch_4">
    <path d="M 473.488626 368.93 
L 565.114841 368.93 
L 565.114841 87.595984 
L 473.488626 87.595984 
z
" clip-path="url(#pe94a0894b6)" style="fill: #d9e6f2"/>
   </g>
   <g id="patch_5">
    <path d="M 183.338943 368.93 
L 274.965159 368.93 
L 274.965159 342.103118 
L 183.338943 342.103118 
z
" clip-path="url(#pe94a0894b6)" style="fill: #4c78a8"/>
   </g>
   <g id="patch_6">
    <path d="M 565.114841 368.93 
L 656.741057 368.93 
L 656.741057 310.785075 
L 565.114841 310.785075 
z
" clip-path="url(#pe94a0894b6)" style="fill: #4c78a8"/>
   </g>
   <g id="patch_7">
    <path d="M 274.965159 368.93 
L 366.591374 368.93 
L 366.591374 350.100747 
L 274.965159 350.100747 
z
" clip-path="url(#pe94a0894b6)" style="fill: #e76f51"/>
   </g>
   <g id="patch_8">
    <path d="M 656.741057 368.93 
L 748.367273 368.93 
L 748.367273 328.677668 
L 656.741057 328.677668 
z
" clip-path="url(#pe94a0894b6)" style="fill: #e76f51"/>
   </g>
   <g id="matplotlib.axis_1">
    <g id="xtick_1">
     <g id="line2d_1">
      <defs>
       <path id="m4df704d995" d="M 0 0 
L 0 3.5 
" style="stroke: #000000; stroke-width: 0.8"/>
      </defs>
      <g>
       <use xlink:href="#m4df704d995" x="229.152051" y="368.93" style="stroke: #000000; stroke-width: 0.8"/>
      </g>
     </g>
     <g id="text_1">
      <!-- 510回旋 -->
      <g transform="translate(210.810644 383.087812) scale(0.1 -0.1)">
       <defs>
        <path id="ArialUnicodeMS-35" d="M 1013 2753 
Q 1431 3041 1881 3041 
Q 2453 3041 2878 2636 
Q 3303 2231 3303 1556 
Q 3303 875 2872 398 
Q 2441 -78 1741 -78 
Q 1169 -78 750 245 
Q 331 569 269 1203 
L 856 1247 
Q 928 813 1162 598 
Q 1397 384 1741 384 
Q 2169 384 2434 707 
Q 2700 1031 2700 1503 
Q 2700 1984 2428 2262 
Q 2156 2541 1728 2541 
Q 1188 2541 897 2100 
L 366 2163 
L 813 4519 
L 3084 4519 
L 3084 3975 
L 1259 3975 
L 1013 2753 
z
" transform="scale(0.015625)"/>
        <path id="ArialUnicodeMS-31" d="M 2400 0 
L 1838 0 
L 1838 3584 
Q 1416 3184 709 2906 
L 709 3450 
Q 1681 3916 2034 4603 
L 2400 4603 
L 2400 0 
z
" transform="scale(0.015625)"/>
        <path id="ArialUnicodeMS-30" d="M 1778 4603 
Q 3272 4603 3272 2259 
Q 3272 1075 2886 498 
Q 2500 -78 1778 -78 
Q 288 -78 288 2259 
Q 288 3444 673 4023 
Q 1059 4603 1778 4603 
z
M 1778 384 
Q 2231 384 2462 823 
Q 2694 1263 2694 2259 
Q 2694 2953 2592 3351 
Q 2491 3750 2286 3945 
Q 2081 4141 1772 4141 
Q 1319 4141 1091 3694 
Q 863 3247 863 2259 
Q 863 1575 966 1175 
Q 1069 775 1272 579 
Q 1475 384 1778 384 
z
" transform="scale(0.015625)"/>
        <path id="ArialUnicodeMS-56de" d="M 5575 -134 
L 5088 -147 
L 5088 313 
L 1313 313 
L 1313 -191 
L 825 -191 
L 825 4825 
L 5575 4825 
L 5575 -134 
z
M 5088 794 
L 5088 4366 
L 1313 4366 
L 1313 794 
L 5088 794 
z
M 4378 1509 
L 1997 1509 
L 1997 3653 
L 4378 3653 
L 4378 1509 
z
M 3891 1972 
L 3891 3194 
L 2484 3194 
L 2484 1972 
L 3891 1972 
z
" transform="scale(0.015625)"/>
        <path id="ArialUnicodeMS-65cb" d="M 6181 353 
L 5991 -147 
L 4750 -147 
Q 3963 -147 3469 506 
Q 3247 -6 2747 -422 
L 2381 -84 
Q 3194 547 3194 1619 
L 3194 2613 
L 3675 2497 
Q 3681 2369 3681 2113 
Q 3681 1334 3603 997 
Q 3831 716 4141 544 
L 4141 3097 
L 3066 3097 
L 3066 3438 
Q 2950 3241 2797 3097 
L 2375 3413 
Q 2578 3603 2766 3809 
L 1516 3809 
L 1503 2834 
L 2663 2834 
L 2669 2388 
L 2606 1088 
Q 2578 613 2492 334 
Q 2406 56 2272 -58 
Q 2138 -172 2009 -194 
Q 1881 -216 1550 -216 
Q 1456 -216 1388 -225 
L 1216 256 
Q 1391 250 1759 250 
Q 2038 250 2075 616 
L 2144 1325 
Q 2200 1869 2209 2369 
L 1509 2369 
Q 1509 1772 1407 1250 
Q 1306 728 1157 443 
Q 1009 159 628 -341 
L 250 -56 
Q 588 288 809 795 
Q 1031 1303 1031 2369 
L 1031 3809 
L 488 3809 
L 488 4275 
L 1434 4275 
L 1434 5259 
L 1919 5259 
L 1919 4275 
L 2803 4275 
L 2803 3859 
Q 3266 4456 3384 5381 
L 3841 5228 
Q 3791 4853 3744 4691 
L 5991 4691 
L 5991 4225 
L 3584 4225 
Q 3416 3847 3188 3566 
L 5825 3566 
Q 5794 2856 5563 2338 
Q 5350 2375 5081 2456 
Q 5263 2819 5300 3097 
L 4647 3097 
L 4647 2022 
L 5697 2022 
L 5697 1556 
L 4647 1556 
L 4647 347 
Q 5016 338 5331 338 
Q 5741 338 6181 353 
z
" transform="scale(0.015625)"/>
       </defs>
       <use xlink:href="#ArialUnicodeMS-35"/>
       <use xlink:href="#ArialUnicodeMS-31" transform="translate(55.615234 0)"/>
       <use xlink:href="#ArialUnicodeMS-30" transform="translate(111.230469 0)"/>
       <use xlink:href="#ArialUnicodeMS-56de" transform="translate(166.845703 0)"/>
       <use xlink:href="#ArialUnicodeMS-65cb" transform="translate(266.845703 0)"/>
      </g>
     </g>
    </g>
    <g id="xtick_2">
     <g id="line2d_2">
      <g>
       <use xlink:href="#m4df704d995" x="610.927949" y="368.93" style="stroke: #000000; stroke-width: 0.8"/>
      </g>
     </g>
     <g id="text_2">
      <!-- 广义回旋 -->
      <g transform="translate(590.927949 383.087812) scale(0.1 -0.1)">
       <defs>
        <path id="ArialUnicodeMS-5e7f" d="M 5813 3872 
L 1691 3872 
L 1691 2988 
Q 1691 1959 1633 1448 
Q 1575 938 1378 484 
Q 1181 31 678 -391 
L 313 -56 
Q 1222 534 1222 2222 
L 1222 4341 
L 3256 4341 
L 3256 5269 
L 3731 5269 
L 3731 4341 
L 5813 4341 
L 5813 3872 
z
" transform="scale(0.015625)"/>
        <path id="ArialUnicodeMS-4e49" d="M 3744 3816 
L 3303 3547 
Q 3100 4331 2484 5019 
L 2906 5234 
Q 3559 4513 3744 3816 
z
M 6113 -50 
L 5759 -453 
Q 4381 -16 3297 838 
Q 2244 -109 603 -447 
L 347 31 
Q 2003 328 2938 1184 
Q 1816 2369 1528 4588 
L 1991 4794 
Q 2206 3350 2512 2667 
Q 2819 1984 3284 1569 
Q 4269 2709 4525 4728 
L 4991 4550 
Q 4628 2284 3659 1216 
Q 4400 444 6113 -50 
z
" transform="scale(0.015625)"/>
       </defs>
       <use xlink:href="#ArialUnicodeMS-5e7f"/>
       <use xlink:href="#ArialUnicodeMS-4e49" transform="translate(100 0)"/>
       <use xlink:href="#ArialUnicodeMS-56de" transform="translate(200 0)"/>
       <use xlink:href="#ArialUnicodeMS-65cb" transform="translate(300 0)"/>
      </g>
     </g>
    </g>
   </g>
   <g id="matplotlib.axis_2">
    <g id="ytick_1">
     <g id="line2d_3">
      <defs>
       <path id="m93cc04387b" d="M 0 0 
L -3.5 0 
" style="stroke: #000000; stroke-width: 0.8"/>
      </defs>
      <g>
       <use xlink:href="#m93cc04387b" x="58.88" y="368.93" style="stroke: #000000; stroke-width: 0.8"/>
      </g>
     </g>
     <g id="text_3">
      <!-- 0 -->
      <g transform="translate(46.319063 372.508906) scale(0.1 -0.1)">
       <use xlink:href="#ArialUnicodeMS-30"/>
      </g>
     </g>
    </g>
    <g id="ytick_2">
     <g id="line2d_4">
      <g>
       <use xlink:href="#m93cc04387b" x="58.88" y="320.896191" style="stroke: #000000; stroke-width: 0.8"/>
      </g>
     </g>
     <g id="text_4">
      <!-- 2000 -->
      <g transform="translate(29.63625 324.475098) scale(0.1 -0.1)">
       <defs>
        <path id="ArialUnicodeMS-32" d="M 3231 0 
L 197 0 
Q 197 388 467 784 
Q 738 1181 1478 1778 
Q 1931 2141 2287 2539 
Q 2644 2938 2644 3341 
Q 2644 3688 2398 3914 
Q 2153 4141 1778 4141 
Q 1400 4141 1144 3908 
Q 888 3675 884 3213 
L 306 3278 
Q 359 3922 764 4262 
Q 1169 4603 1791 4603 
Q 2466 4603 2842 4229 
Q 3219 3856 3219 3328 
Q 3219 2888 2901 2436 
Q 2584 1984 1638 1228 
Q 1141 831 978 544 
L 3231 544 
L 3231 0 
z
" transform="scale(0.015625)"/>
       </defs>
       <use xlink:href="#ArialUnicodeMS-32"/>
       <use xlink:href="#ArialUnicodeMS-30" transform="translate(55.615234 0)"/>
       <use xlink:href="#ArialUnicodeMS-30" transform="translate(111.230469 0)"/>
       <use xlink:href="#ArialUnicodeMS-30" transform="translate(166.845703 0)"/>
      </g>
     </g>
    </g>
    <g id="ytick_3">
     <g id="line2d_5">
      <g>
       <use xlink:href="#m93cc04387b" x="58.88" y="272.862383" style="stroke: #000000; stroke-width: 0.8"/>
      </g>
     </g>
     <g id="text_5">
      <!-- 4000 -->
      <g transform="translate(29.63625 276.441289) scale(0.1 -0.1)">
       <defs>
        <path id="ArialUnicodeMS-34" d="M 3263 1094 
L 2644 1094 
L 2644 0 
L 2081 0 
L 2081 1094 
L 97 1094 
L 97 1613 
L 2181 4581 
L 2644 4581 
L 2644 1613 
L 3263 1613 
L 3263 1094 
z
M 2081 1613 
L 2081 3681 
L 2069 3681 
L 647 1613 
L 2081 1613 
z
" transform="scale(0.015625)"/>
       </defs>
       <use xlink:href="#ArialUnicodeMS-34"/>
       <use xlink:href="#ArialUnicodeMS-30" transform="translate(55.615234 0)"/>
       <use xlink:href="#ArialUnicodeMS-30" transform="translate(111.230469 0)"/>
       <use xlink:href="#ArialUnicodeMS-30" transform="translate(166.845703 0)"/>
      </g>
     </g>
    </g>
    <g id="ytick_4">
     <g id="line2d_6">
      <g>
       <use xlink:href="#m93cc04387b" x="58.88" y="224.828574" style="stroke: #000000; stroke-width: 0.8"/>
      </g>
     </g>
     <g id="text_6">
      <!-- 6000 -->
      <g transform="translate(29.63625 228.407481) scale(0.1 -0.1)">
       <defs>
        <path id="ArialUnicodeMS-36" d="M 838 2363 
Q 1225 2969 1941 2969 
Q 2503 2969 2897 2553 
Q 3291 2138 3291 1491 
Q 3291 838 2898 380 
Q 2506 -78 1856 -78 
Q 1197 -78 733 409 
Q 269 897 269 2144 
Q 269 3369 689 3986 
Q 1109 4603 1906 4603 
Q 2422 4603 2778 4315 
Q 3134 4028 3213 3463 
L 2650 3413 
Q 2497 4141 1875 4141 
Q 1444 4141 1134 3712 
Q 825 3284 825 2363 
L 838 2363 
z
M 1844 384 
Q 2231 384 2472 696 
Q 2713 1009 2713 1453 
Q 2713 1897 2472 2187 
Q 2231 2478 1825 2478 
Q 1453 2478 1184 2204 
Q 916 1931 916 1484 
Q 916 1028 1180 706 
Q 1444 384 1844 384 
z
" transform="scale(0.015625)"/>
       </defs>
       <use xlink:href="#ArialUnicodeMS-36"/>
       <use xlink:href="#ArialUnicodeMS-30" transform="translate(55.615234 0)"/>
       <use xlink:href="#ArialUnicodeMS-30" transform="translate(111.230469 0)"/>
       <use xlink:href="#ArialUnicodeMS-30" transform="translate(166.845703 0)"/>
      </g>
     </g>
    </g>
    <g id="ytick_5">
     <g id="line2d_7">
      <g>
       <use xlink:href="#m93cc04387b" x="58.88" y="176.794766" style="stroke: #000000; stroke-width: 0.8"/>
      </g>
     </g>
     <g id="text_7">
      <!-- 8000 -->
      <g transform="translate(29.63625 180.373672) scale(0.1 -0.1)">
       <defs>
        <path id="ArialUnicodeMS-38" d="M 2425 2478 
Q 3284 2203 3284 1306 
Q 3284 716 2862 319 
Q 2441 -78 1778 -78 
Q 1109 -78 689 322 
Q 269 722 269 1325 
Q 269 1759 505 2084 
Q 741 2409 1141 2478 
L 1141 2491 
Q 453 2703 453 3419 
Q 453 3925 815 4264 
Q 1178 4603 1766 4603 
Q 2363 4603 2730 4253 
Q 3097 3903 3097 3406 
Q 3097 2731 2425 2491 
L 2425 2478 
z
M 1778 2700 
Q 2094 2700 2308 2901 
Q 2522 3103 2522 3406 
Q 2522 3716 2305 3928 
Q 2088 4141 1772 4141 
Q 1450 4141 1240 3931 
Q 1031 3722 1031 3438 
Q 1031 3097 1247 2898 
Q 1463 2700 1778 2700 
z
M 1778 384 
Q 2175 384 2440 640 
Q 2706 897 2706 1306 
Q 2706 1716 2432 1978 
Q 2159 2241 1766 2241 
Q 1356 2241 1100 1970 
Q 844 1700 844 1319 
Q 844 922 1108 653 
Q 1372 384 1778 384 
z
" transform="scale(0.015625)"/>
       </defs>
       <use xlink:href="#ArialUnicodeMS-38"/>
       <use xlink:href="#ArialUnicodeMS-30" transform="translate(55.615234 0)"/>
       <use xlink:href="#ArialUnicodeMS-30" transform="translate(111.230469 0)"/>
       <use xlink:href="#ArialUnicodeMS-30" transform="translate(166.845703 0)"/>
      </g>
     </g>
    </g>
    <g id="ytick_6">
     <g id="line2d_8">
      <g>
       <use xlink:href="#m93cc04387b" x="58.88" y="128.760957" style="stroke: #000000; stroke-width: 0.8"/>
      </g>
     </g>
     <g id="text_8">
      <!-- 10000 -->
      <g transform="translate(24.075313 132.339864) scale(0.1 -0.1)">
       <use xlink:href="#ArialUnicodeMS-31"/>
       <use xlink:href="#ArialUnicodeMS-30" transform="translate(55.615234 0)"/>
       <use xlink:href="#ArialUnicodeMS-30" transform="translate(111.230469 0)"/>
       <use xlink:href="#ArialUnicodeMS-30" transform="translate(166.845703 0)"/>
       <use xlink:href="#ArialUnicodeMS-30" transform="translate(222.460938 0)"/>
      </g>
     </g>
    </g>
    <g id="ytick_7">
     <g id="line2d_9">
      <g>
       <use xlink:href="#m93cc04387b" x="58.88" y="80.727149" style="stroke: #000000; stroke-width: 0.8"/>
      </g>
     </g>
     <g id="text_9">
      <!-- 12000 -->
      <g transform="translate(24.075313 84.306055) scale(0.1 -0.1)">
       <use xlink:href="#ArialUnicodeMS-31"/>
       <use xlink:href="#ArialUnicodeMS-32" transform="translate(55.615234 0)"/>
       <use xlink:href="#ArialUnicodeMS-30" transform="translate(111.230469 0)"/>
       <use xlink:href="#ArialUnicodeMS-30" transform="translate(166.845703 0)"/>
       <use xlink:href="#ArialUnicodeMS-30" transform="translate(222.460938 0)"/>
      </g>
     </g>
    </g>
    <g id="ytick_8">
     <g id="line2d_10">
      <g>
       <use xlink:href="#m93cc04387b" x="58.88" y="32.69334" style="stroke: #000000; stroke-width: 0.8"/>
      </g>
     </g>
     <g id="text_10">
      <!-- 14000 -->
      <g transform="translate(24.075313 36.272247) scale(0.1 -0.1)">
       <use xlink:href="#ArialUnicodeMS-31"/>
       <use xlink:href="#ArialUnicodeMS-34" transform="translate(55.615234 0)"/>
       <use xlink:href="#ArialUnicodeMS-30" transform="translate(111.230469 0)"/>
       <use xlink:href="#ArialUnicodeMS-30" transform="translate(166.845703 0)"/>
       <use xlink:href="#ArialUnicodeMS-30" transform="translate(222.460938 0)"/>
      </g>
     </g>
    </g>
    <g id="text_11">
     <!-- 人数 -->
     <g transform="translate(18.083125 207.31625) rotate(-90) scale(0.1 -0.1)">
      <defs>
       <path id="ArialUnicodeMS-4eba" d="M 6034 109 
L 5663 -306 
Q 3916 569 3213 2272 
Q 2581 763 838 -288 
L 453 91 
Q 1166 503 1692 1025 
Q 2219 1547 2522 2075 
Q 2825 2603 2912 3243 
Q 3000 3884 3009 5159 
L 3519 5159 
Q 3525 4763 3475 4111 
Q 3425 3459 3425 3078 
Q 3425 2813 3754 2188 
Q 4084 1563 4632 1020 
Q 5181 478 6034 109 
z
" transform="scale(0.015625)"/>
       <path id="ArialUnicodeMS-6570" d="M 6138 19 
L 5806 -378 
Q 5031 194 4697 716 
Q 4344 144 3328 -441 
L 2981 -50 
Q 3966 434 4403 1153 
Q 4038 1834 3866 2753 
Q 3678 2356 3353 1919 
L 2950 2203 
Q 3838 3172 3963 5253 
L 4409 5125 
Q 4341 4384 4269 4006 
L 5984 4006 
L 5984 3547 
L 5619 3541 
L 5594 3341 
Q 5441 2113 4978 1191 
Q 5281 672 6138 19 
z
M 5166 3541 
L 4172 3541 
Q 4297 2419 4691 1650 
Q 5038 2513 5166 3541 
z
M 3438 3653 
L 2209 3653 
L 2209 2338 
L 1919 2338 
Q 1900 2269 1753 1931 
L 3225 1931 
L 3225 1472 
L 2913 1472 
Q 2763 991 2503 666 
Q 2947 353 3103 184 
L 2747 -172 
Q 2463 138 2150 313 
Q 1322 -225 563 -428 
L 269 6 
Q 1106 163 1684 563 
Q 1291 756 703 884 
L 1038 1472 
L 403 1472 
L 403 1931 
L 1259 1931 
Q 1328 2056 1466 2553 
L 1747 2484 
L 1747 3653 
L 1716 3653 
Q 1413 2881 678 2456 
L 378 2803 
Q 938 3091 1241 3653 
L 403 3653 
L 403 4122 
L 1747 4122 
L 1747 5228 
L 2209 5228 
L 2209 4122 
L 3438 4122 
L 3438 3653 
z
M 2406 1472 
L 1538 1472 
Q 1422 1241 1369 1153 
Q 1388 1159 2069 884 
Q 2219 1031 2406 1472 
z
M 1625 4441 
L 1288 4159 
Q 1022 4547 575 4813 
L 878 5075 
Q 1394 4844 1625 4441 
z
M 3384 4844 
Q 3097 4409 2669 4172 
L 2322 4481 
Q 2806 4759 3047 5069 
L 3384 4844 
z
M 3303 2888 
L 2944 2578 
Q 2706 3025 2291 3297 
L 2584 3566 
Q 2988 3359 3303 2888 
z
" transform="scale(0.015625)"/>
      </defs>
      <use xlink:href="#ArialUnicodeMS-4eba"/>
      <use xlink:href="#ArialUnicodeMS-6570" transform="translate(100 0)"/>
     </g>
    </g>
   </g>
   <g id="patch_9">
    <path d="M 58.88 368.93 
L 58.88 25.7025 
" style="fill: none; stroke: #000000; stroke-width: 0.8; stroke-linejoin: miter; stroke-linecap: square"/>
   </g>
   <g id="patch_10">
    <path d="M 781.2 368.93 
L 781.2 25.7025 
" style="fill: none; stroke: #000000; stroke-width: 0.8; stroke-linejoin: miter; stroke-linecap: square"/>
   </g>
   <g id="patch_11">
    <path d="M 58.88 368.93 
L 781.2 368.93 
" style="fill: none; stroke: #000000; stroke-width: 0.8; stroke-linejoin: miter; stroke-linecap: square"/>
   </g>
   <g id="patch_12">
    <path d="M 58.88 25.7025 
L 781.2 25.7025 
" style="fill: none; stroke: #000000; stroke-width: 0.8; stroke-linejoin: miter; stroke-linecap: square"/>
   </g>
   <g id="text_12">
    <!-- 5,176 -->
    <g transform="translate(126.891538 240.111804) scale(0.085 -0.085)">
     <defs>
      <path id="ArialUnicodeMS-2c" d="M 1216 0 
Q 1216 -397 1064 -606 
Q 913 -816 691 -903 
L 538 -666 
Q 888 -516 891 0 
L 575 0 
L 575 641 
L 1216 641 
L 1216 0 
z
" transform="scale(0.015625)"/>
      <path id="ArialUnicodeMS-37" d="M 3272 4084 
Q 2597 3344 2103 2253 
Q 1609 1163 1522 0 
L 947 0 
Q 969 934 1408 2051 
Q 1847 3169 2547 3975 
L 306 3975 
L 306 4519 
L 3272 4519 
L 3272 4084 
z
" transform="scale(0.015625)"/>
     </defs>
     <use xlink:href="#ArialUnicodeMS-35"/>
     <use xlink:href="#ArialUnicodeMS-2c" transform="translate(55.615234 0)"/>
     <use xlink:href="#ArialUnicodeMS-31" transform="translate(83.398438 0)"/>
     <use xlink:href="#ArialUnicodeMS-37" transform="translate(139.013672 0)"/>
     <use xlink:href="#ArialUnicodeMS-36" transform="translate(194.628906 0)"/>
    </g>
   </g>
   <g id="text_13">
    <!-- 11,714 -->
    <g transform="translate(506.304038 83.089284) scale(0.085 -0.085)">
     <use xlink:href="#ArialUnicodeMS-31"/>
     <use xlink:href="#ArialUnicodeMS-31" transform="translate(55.615234 0)"/>
     <use xlink:href="#ArialUnicodeMS-2c" transform="translate(111.230469 0)"/>
     <use xlink:href="#ArialUnicodeMS-37" transform="translate(139.013672 0)"/>
     <use xlink:href="#ArialUnicodeMS-31" transform="translate(194.628906 0)"/>
     <use xlink:href="#ArialUnicodeMS-34" transform="translate(250.244141 0)"/>
    </g>
   </g>
   <g id="text_14">
    <!-- 1,117 -->
    <g transform="translate(218.517754 337.596418) scale(0.085 -0.085)">
     <use xlink:href="#ArialUnicodeMS-31"/>
     <use xlink:href="#ArialUnicodeMS-2c" transform="translate(55.615234 0)"/>
     <use xlink:href="#ArialUnicodeMS-31" transform="translate(83.398438 0)"/>
     <use xlink:href="#ArialUnicodeMS-31" transform="translate(139.013672 0)"/>
     <use xlink:href="#ArialUnicodeMS-37" transform="translate(194.628906 0)"/>
    </g>
   </g>
   <g id="text_15">
    <!-- 2,421 -->
    <g transform="translate(600.293652 306.278375) scale(0.085 -0.085)">
     <use xlink:href="#ArialUnicodeMS-32"/>
     <use xlink:href="#ArialUnicodeMS-2c" transform="translate(55.615234 0)"/>
     <use xlink:href="#ArialUnicodeMS-34" transform="translate(83.398438 0)"/>
     <use xlink:href="#ArialUnicodeMS-32" transform="translate(139.013672 0)"/>
     <use xlink:href="#ArialUnicodeMS-31" transform="translate(194.628906 0)"/>
    </g>
   </g>
   <g id="text_16">
    <!-- 784 -->
    <g transform="translate(313.688071 345.594048) scale(0.085 -0.085)">
     <use xlink:href="#ArialUnicodeMS-37"/>
     <use xlink:href="#ArialUnicodeMS-38" transform="translate(55.615234 0)"/>
     <use xlink:href="#ArialUnicodeMS-34" transform="translate(111.230469 0)"/>
    </g>
   </g>
   <g id="text_17">
    <!-- 1,676 -->
    <g transform="translate(691.919868 324.170969) scale(0.085 -0.085)">
     <use xlink:href="#ArialUnicodeMS-31"/>
     <use xlink:href="#ArialUnicodeMS-2c" transform="translate(55.615234 0)"/>
     <use xlink:href="#ArialUnicodeMS-36" transform="translate(83.398438 0)"/>
     <use xlink:href="#ArialUnicodeMS-37" transform="translate(139.013672 0)"/>
     <use xlink:href="#ArialUnicodeMS-36" transform="translate(194.628906 0)"/>
    </g>
   </g>
   <g id="text_18">
    <!-- 回旋用户集合规模与留存强度 -->
    <g transform="translate(342.04 19.7025) scale(0.12 -0.12)">
     <defs>
      <path id="ArialUnicodeMS-7528" d="M 5472 159 
Q 5472 -66 5340 -219 
Q 5209 -372 5013 -372 
L 4347 -372 
L 4191 128 
L 4722 113 
Q 4966 113 4966 256 
L 4966 1722 
L 3572 1722 
L 3572 13 
L 3084 13 
L 3084 1722 
L 1678 1722 
Q 1584 466 744 -469 
L 331 -159 
Q 794 394 1001 936 
Q 1209 1478 1209 2194 
L 1209 5044 
L 5472 5044 
L 5472 159 
z
M 4966 3641 
L 4966 4575 
L 3572 4575 
L 3572 3641 
L 4966 3641 
z
M 3084 3641 
L 3084 4575 
L 1697 4575 
L 1697 3641 
L 3084 3641 
z
M 4966 2188 
L 4966 3175 
L 3572 3175 
L 3572 2188 
L 4966 2188 
z
M 3084 2188 
L 3084 3175 
L 1697 3175 
L 1697 2188 
L 3084 2188 
z
" transform="scale(0.015625)"/>
      <path id="ArialUnicodeMS-6237" d="M 5434 2291 
L 4947 2291 
L 4947 2553 
L 1684 2553 
Q 1700 1378 1490 734 
Q 1281 91 781 -422 
L 341 -78 
Q 1191 647 1191 2003 
L 1191 4341 
L 3244 4341 
Q 3000 4744 2456 5075 
L 2816 5388 
Q 3384 5044 3769 4506 
L 3559 4359 
L 3559 4341 
L 5434 4341 
L 5434 2291 
z
M 4947 3016 
L 4947 3878 
L 1678 3878 
L 1678 3016 
L 4947 3016 
z
" transform="scale(0.015625)"/>
      <path id="ArialUnicodeMS-96c6" d="M 5797 2034 
L 1741 2034 
L 1741 1722 
L 1253 1722 
L 1253 3681 
Q 1066 3472 769 3244 
L 372 3531 
Q 1191 4122 1728 5319 
L 2163 5147 
Q 2069 4913 1919 4672 
L 3303 4672 
Q 3450 4994 3519 5313 
L 4000 5147 
Q 3966 4959 3841 4672 
L 5697 4672 
L 5697 4206 
L 3653 4206 
L 3653 3928 
L 5294 3928 
L 5294 3488 
L 3653 3488 
L 3653 3238 
L 5313 3238 
L 5313 2772 
L 3653 2772 
L 3653 2478 
L 5797 2478 
L 5797 2034 
z
M 3169 3928 
L 3169 4206 
L 1759 4206 
L 1759 3928 
L 3169 3928 
z
M 3169 3238 
L 3169 3488 
L 1741 3488 
L 1741 3238 
L 3169 3238 
z
M 3169 2478 
L 3169 2778 
L 1728 2778 
L 1734 2478 
L 3169 2478 
z
M 6156 319 
L 5906 -122 
Q 4156 194 3500 1100 
L 3500 -428 
L 3016 -428 
L 3016 1113 
Q 2269 203 628 -141 
L 353 300 
Q 1625 522 2431 1184 
L 647 1184 
L 647 1650 
L 3016 1650 
L 3016 1913 
L 3500 1913 
L 3500 1650 
L 5888 1650 
L 5888 1184 
L 4063 1184 
Q 4756 531 6156 319 
z
" transform="scale(0.015625)"/>
      <path id="ArialUnicodeMS-5408" d="M 6119 2925 
L 5797 2497 
Q 5525 2603 5015 2934 
Q 4506 3266 4200 3555 
Q 3894 3844 3200 4659 
Q 2319 3578 603 2419 
L 256 2803 
Q 2228 4103 3175 5497 
L 3647 5178 
L 3450 4978 
Q 3994 4306 4803 3698 
Q 5613 3091 6119 2925 
z
M 4691 2597 
L 1638 2597 
L 1638 3084 
L 4691 3084 
L 4691 2597 
z
M 5063 -434 
L 4556 -434 
L 4556 -38 
L 1838 -38 
L 1838 -469 
L 1331 -469 
L 1331 1906 
L 5063 1906 
L 5063 -434 
z
M 4556 447 
L 4556 1441 
L 1838 1441 
L 1838 447 
L 4556 447 
z
" transform="scale(0.015625)"/>
      <path id="ArialUnicodeMS-89c4" d="M 2759 2547 
L 1881 2547 
Q 1725 875 519 -313 
L 166 44 
Q 1244 1166 1416 2547 
L 300 2547 
L 300 2988 
L 1422 2988 
Q 1428 3106 1428 3272 
L 1422 3859 
L 481 3859 
L 481 4325 
L 1416 4325 
L 1416 5288 
L 1900 5288 
L 1900 4325 
L 2694 4325 
L 2694 3859 
L 1913 3859 
L 1913 2988 
L 2759 2988 
L 2759 2547 
z
M 5422 1453 
L 4966 1453 
L 4966 4603 
L 3322 4603 
L 3322 1453 
L 2869 1453 
L 2869 5044 
L 5422 5044 
L 5422 1453 
z
M 4409 4250 
Q 4281 1875 3723 1014 
Q 3166 153 1863 -359 
L 1569 63 
Q 2769 494 3270 1201 
Q 3772 1909 3963 4313 
L 4409 4250 
z
M 2925 966 
L 2541 684 
Q 2181 1431 1797 1747 
L 2150 2003 
Q 2616 1631 2925 966 
z
M 5966 800 
Q 5763 -97 5428 -97 
L 4684 -97 
Q 4438 -97 4280 39 
Q 4122 175 4122 341 
L 4122 1966 
L 4609 1966 
L 4609 384 
Q 4634 347 4653 347 
L 5344 347 
Q 5494 416 5556 966 
L 5966 800 
z
" transform="scale(0.015625)"/>
      <path id="ArialUnicodeMS-6a21" d="M 5906 4213 
L 5063 4213 
L 5063 3809 
L 4575 3809 
L 4575 4213 
L 3469 4213 
L 3469 3809 
L 2981 3809 
L 2981 4213 
L 2131 4213 
L 2131 4678 
L 2981 4678 
L 2981 5300 
L 3469 5300 
L 3469 4678 
L 4575 4678 
L 4575 5300 
L 5063 5300 
L 5063 4678 
L 5906 4678 
L 5906 4213 
z
M 2503 1947 
L 2088 1684 
Q 1891 2191 1716 2394 
L 1716 -441 
L 1222 -441 
L 1222 2088 
Q 1066 1534 588 941 
L 197 1281 
Q 1044 2356 1216 3572 
L 397 3572 
L 397 4038 
L 1209 4038 
L 1209 5281 
L 1716 5281 
L 1716 4038 
L 2406 4038 
L 2406 3572 
L 1716 3572 
L 1716 2900 
L 1856 2969 
Q 2316 2422 2503 1947 
z
M 6094 -25 
L 5838 -422 
Q 4453 -172 4025 838 
Q 3584 -53 2241 -428 
L 1972 -6 
Q 3103 253 3506 856 
L 2247 856 
L 2247 1325 
L 3706 1325 
L 3788 1684 
L 2553 1684 
L 2553 3675 
L 5491 3675 
L 5491 1684 
L 4250 1684 
Q 4222 1453 4178 1325 
L 5791 1325 
L 5791 856 
L 4519 856 
Q 4981 197 6094 -25 
z
M 4984 2925 
L 4984 3206 
L 3059 3206 
L 3059 2925 
L 4984 2925 
z
M 4984 2150 
L 4984 2456 
L 3059 2456 
L 3059 2150 
L 4984 2150 
z
" transform="scale(0.015625)"/>
      <path id="ArialUnicodeMS-4e0e" d="M 5953 3916 
L 1881 3916 
L 1784 3028 
L 5153 3028 
L 5081 1734 
L 5919 1734 
L 5919 1234 
L 5050 1234 
Q 4984 100 4750 -154 
Q 4516 -409 4159 -409 
Q 3856 -409 3225 -269 
L 3144 300 
Q 3863 103 4091 103 
Q 4253 103 4348 201 
Q 4444 300 4487 711 
Q 4531 1122 4531 1234 
L 434 1234 
L 434 1734 
L 4569 1734 
Q 4597 2088 4609 2509 
L 1728 2509 
L 1672 2069 
L 1172 2113 
L 1528 5281 
L 2041 5228 
L 1947 4428 
L 5953 4428 
L 5953 3916 
z
" transform="scale(0.015625)"/>
      <path id="ArialUnicodeMS-7559" d="M 5741 5019 
Q 5666 3128 5442 2879 
Q 5219 2631 4959 2631 
Q 4856 2631 4331 2772 
L 4275 3278 
Q 4738 3097 4909 3097 
Q 5153 3097 5184 3641 
L 5241 4550 
L 4391 4550 
Q 4303 3022 3109 2547 
L 2869 2847 
L 2528 2688 
Q 2475 2938 2431 3003 
L 728 2559 
L 481 3028 
L 891 3116 
L 891 4666 
Q 2113 4803 2809 5234 
L 3138 4897 
Q 2259 4422 1369 4288 
L 1369 3194 
L 2297 3406 
Q 2109 3738 1953 3884 
L 2363 4091 
Q 2756 3669 2963 3003 
Q 3841 3400 3909 4550 
L 3250 4550 
L 3250 5019 
L 5741 5019 
z
M 5269 -403 
L 4781 -403 
L 4781 -25 
L 1625 -25 
L 1625 -434 
L 1141 -434 
L 1141 2463 
L 5269 2463 
L 5269 -403 
z
M 4781 1472 
L 4781 1997 
L 3450 1997 
L 3450 1472 
L 4781 1472 
z
M 2963 1472 
L 2963 1997 
L 1625 1997 
L 1625 1472 
L 2963 1472 
z
M 4781 441 
L 4781 1006 
L 3450 1006 
L 3450 441 
L 4781 441 
z
M 2963 441 
L 2963 1006 
L 1625 1006 
L 1625 441 
L 2963 441 
z
" transform="scale(0.015625)"/>
      <path id="ArialUnicodeMS-5b58" d="M 5850 4013 
L 2425 4013 
L 2028 3238 
L 2028 -441 
L 1544 -441 
L 1544 2491 
Q 1334 2172 738 1594 
L 300 1913 
Q 1272 2759 1875 4013 
L 756 4013 
L 756 4481 
L 2081 4481 
Q 2203 4744 2344 5369 
L 2797 5209 
Q 2778 5038 2606 4481 
L 5850 4481 
L 5850 4013 
z
M 6034 1472 
L 4347 1472 
L 4347 153 
Q 4347 -134 4144 -265 
Q 3941 -397 3219 -372 
L 3009 128 
L 3628 128 
Q 3841 128 3841 366 
L 3841 1472 
L 2253 1472 
L 2253 1941 
L 3841 1941 
L 3841 2425 
Q 4309 2631 4697 3022 
L 2688 3022 
L 2688 3488 
L 5422 3488 
L 5422 3047 
Q 4831 2441 4347 2156 
L 4347 1941 
L 6034 1941 
L 6034 1472 
z
" transform="scale(0.015625)"/>
      <path id="ArialUnicodeMS-5f3a" d="M 2478 2316 
Q 2313 159 2092 -158 
Q 1872 -475 1594 -475 
Q 1431 -475 897 -384 
L 769 116 
L 1497 6 
Q 1650 -41 1745 342 
Q 1841 725 1966 1850 
L 1013 1850 
L 891 1434 
L 403 1528 
Q 684 2422 775 3634 
L 1978 3634 
L 1978 4441 
L 422 4441 
L 422 4903 
L 2463 4903 
L 2463 3175 
L 1222 3175 
L 1100 2316 
L 2478 2316 
z
M 6016 -206 
L 5613 -469 
Q 5363 -78 5306 0 
L 2700 -341 
L 2438 141 
Q 3069 175 3884 269 
L 3884 1234 
L 3144 1234 
L 3144 831 
L 2656 831 
L 2656 3022 
L 3884 3022 
L 3884 3284 
L 2944 3284 
L 2944 4838 
L 5394 4838 
L 5394 3284 
L 4372 3284 
L 4372 3022 
L 5631 3022 
L 5631 916 
L 5147 916 
L 5147 1234 
L 4372 1234 
L 4372 313 
L 4941 409 
Q 4872 453 4739 570 
Q 4606 688 4544 728 
L 4966 947 
Q 5709 425 6016 -206 
z
M 4909 3744 
L 4909 4378 
L 3406 4378 
L 3406 3744 
L 4909 3744 
z
M 5147 1697 
L 5147 2559 
L 4372 2559 
L 4372 1697 
L 5147 1697 
z
M 3884 1697 
L 3884 2559 
L 3144 2559 
L 3144 1697 
L 3884 1697 
z
" transform="scale(0.015625)"/>
      <path id="ArialUnicodeMS-5ea6" d="M 5913 4269 
L 1363 4269 
L 1363 2278 
Q 1363 1144 1180 528 
Q 997 -88 684 -434 
L 294 -147 
Q 669 378 773 940 
Q 878 1503 878 2350 
L 878 4738 
L 3200 4738 
L 3200 5288 
L 3706 5288 
L 3706 4738 
L 5913 4738 
L 5913 4269 
z
M 5778 3194 
L 4728 3194 
L 4728 2303 
L 2350 2303 
L 2350 3194 
L 1472 3194 
L 1472 3659 
L 2350 3659 
L 2350 4147 
L 2828 4147 
L 2828 3659 
L 4244 3659 
L 4244 4147 
L 4728 4147 
L 4728 3659 
L 5778 3659 
L 5778 3194 
z
M 4244 2747 
L 4244 3194 
L 2834 3194 
L 2834 2747 
L 4244 2747 
z
M 6081 72 
L 5819 -397 
Q 4484 -216 3531 263 
Q 2494 -234 1388 -397 
L 1088 44 
Q 2078 134 3034 550 
Q 2509 934 2113 1528 
L 1625 1528 
L 1625 1972 
L 5159 1972 
L 5159 1544 
Q 4819 1025 4044 538 
Q 4963 166 6081 72 
z
M 4544 1528 
L 2700 1528 
Q 3125 1038 3531 781 
Q 4194 1159 4544 1528 
z
" transform="scale(0.015625)"/>
     </defs>
     <use xlink:href="#ArialUnicodeMS-56de"/>
     <use xlink:href="#ArialUnicodeMS-65cb" transform="translate(100 0)"/>
     <use xlink:href="#ArialUnicodeMS-7528" transform="translate(200 0)"/>
     <use xlink:href="#ArialUnicodeMS-6237" transform="translate(300 0)"/>
     <use xlink:href="#ArialUnicodeMS-96c6" transform="translate(400 0)"/>
     <use xlink:href="#ArialUnicodeMS-5408" transform="translate(500 0)"/>
     <use xlink:href="#ArialUnicodeMS-89c4" transform="translate(600 0)"/>
     <use xlink:href="#ArialUnicodeMS-6a21" transform="translate(700 0)"/>
     <use xlink:href="#ArialUnicodeMS-4e0e" transform="translate(800 0)"/>
     <use xlink:href="#ArialUnicodeMS-7559" transform="translate(900 0)"/>
     <use xlink:href="#ArialUnicodeMS-5b58" transform="translate(1000 0)"/>
     <use xlink:href="#ArialUnicodeMS-5f3a" transform="translate(1100 0)"/>
     <use xlink:href="#ArialUnicodeMS-5ea6" transform="translate(1200 0)"/>
    </g>
   </g>
   <g id="legend_1">
    <g id="patch_13">
     <path d="M 419.253125 42.041562 
L 439.253125 42.041562 
L 439.253125 35.041562 
L 419.253125 35.041562 
z
" style="fill: #d9e6f2"/>
    </g>
    <g id="text_19">
     <!-- 原始集合 -->
     <g transform="translate(447.253125 42.041562) scale(0.1 -0.1)">
      <defs>
       <path id="ArialUnicodeMS-539f" d="M 5888 4569 
L 4063 4569 
Q 4006 4288 3909 4063 
L 5269 4078 
L 5269 1797 
L 3969 1797 
L 3969 38 
Q 3944 -213 3717 -316 
Q 3491 -419 3309 -409 
L 2853 -391 
L 2700 84 
Q 2906 56 3103 56 
Q 3481 56 3481 219 
L 3481 1797 
L 2088 1797 
L 2088 4063 
L 3366 4078 
Q 3463 4225 3572 4569 
L 1600 4569 
L 1600 2328 
Q 1600 1400 1454 812 
Q 1309 225 831 -391 
L 378 -116 
Q 753 359 933 850 
Q 1113 1341 1113 2209 
L 1113 5038 
L 5888 5038 
L 5888 4569 
z
M 4781 3175 
L 4781 3609 
L 2572 3609 
L 2572 3175 
L 4781 3175 
z
M 4781 2266 
L 4781 2706 
L 2572 2706 
L 2572 2266 
L 4781 2266 
z
M 5966 403 
L 5613 56 
Q 5028 850 4238 1306 
L 4569 1613 
Q 5275 1303 5966 403 
z
M 3034 1331 
Q 2700 581 1734 0 
L 1403 341 
Q 2328 903 2669 1594 
L 3034 1331 
z
" transform="scale(0.015625)"/>
       <path id="ArialUnicodeMS-59cb" d="M 6047 2656 
L 5575 2456 
Q 5481 2788 5388 2975 
L 2719 2713 
L 2619 2981 
Q 2503 2059 2216 1331 
Q 2497 1147 2963 709 
L 2650 288 
Q 2131 825 1984 872 
Q 1525 13 709 -475 
L 347 -134 
Q 1250 472 1581 1106 
Q 1181 1356 588 1528 
Q 891 2266 1172 3591 
L 469 3591 
L 469 4056 
L 1253 4056 
Q 1381 4750 1409 5306 
L 1894 5147 
Q 1825 4497 1741 4056 
L 2731 4056 
L 2663 3244 
Q 2938 3244 3041 3272 
Q 3609 4163 4025 5344 
L 4525 5125 
Q 3866 3672 3566 3272 
L 5191 3391 
Q 4928 3825 4603 4116 
L 4997 4353 
Q 5722 3688 6047 2656 
z
M 2234 3591 
L 1656 3591 
Q 1444 2541 1172 1819 
Q 1459 1719 1784 1556 
Q 2078 2272 2234 3591 
z
M 5563 -416 
L 5075 -416 
L 5075 109 
L 3500 109 
L 3500 -416 
L 3016 -416 
L 3016 2328 
L 5563 2328 
L 5563 -416 
z
M 5075 575 
L 5075 1863 
L 3500 1863 
L 3500 575 
L 5075 575 
z
" transform="scale(0.015625)"/>
      </defs>
      <use xlink:href="#ArialUnicodeMS-539f"/>
      <use xlink:href="#ArialUnicodeMS-59cb" transform="translate(100 0)"/>
      <use xlink:href="#ArialUnicodeMS-96c6" transform="translate(200 0)"/>
      <use xlink:href="#ArialUnicodeMS-5408" transform="translate(300 0)"/>
     </g>
    </g>
    <g id="patch_14">
     <path d="M 507.253125 42.041562 
L 527.253125 42.041562 
L 527.253125 35.041562 
L 507.253125 35.041562 
z
" style="fill: #4c78a8"/>
    </g>
    <g id="text_20">
     <!-- A-SOUL有效到场&gt;=3 -->
     <g transform="translate(535.253125 42.041562) scale(0.1 -0.1)">
      <defs>
       <path id="ArialUnicodeMS-41" d="M 4275 0 
L 3591 0 
L 3053 1394 
L 1141 1394 
L 634 0 
L -6 0 
L 1753 4581 
L 2406 4581 
L 4275 0 
z
M 2869 1875 
Q 2306 3363 2234 3564 
Q 2163 3766 2075 4103 
L 2059 4103 
Q 1972 3641 1825 3247 
L 1313 1875 
L 2869 1875 
z
" transform="scale(0.015625)"/>
       <path id="ArialUnicodeMS-2d" d="M 1925 1375 
L 206 1375 
L 206 1941 
L 1925 1941 
L 1925 1375 
z
" transform="scale(0.015625)"/>
       <path id="ArialUnicodeMS-53" d="M 3213 3238 
Q 3175 3675 2897 3895 
Q 2619 4116 2100 4116 
Q 1631 4116 1337 3941 
Q 1044 3766 1044 3431 
Q 1044 3134 1270 2989 
Q 1497 2844 2138 2700 
Q 2706 2575 3065 2444 
Q 3425 2313 3681 2036 
Q 3938 1759 3938 1294 
Q 3938 703 3467 312 
Q 2997 -78 2241 -78 
Q 1275 -78 795 353 
Q 316 784 288 1472 
L 863 1522 
Q 903 972 1287 720 
Q 1672 469 2216 469 
Q 2725 469 3039 678 
Q 3353 888 3353 1247 
Q 3353 1622 3025 1794 
Q 2697 1966 1923 2133 
Q 1150 2300 809 2603 
Q 469 2906 469 3391 
Q 469 3941 900 4300 
Q 1331 4659 2075 4659 
Q 2838 4659 3302 4301 
Q 3766 3944 3794 3284 
L 3213 3238 
z
" transform="scale(0.015625)"/>
       <path id="ArialUnicodeMS-4f" d="M 2497 4659 
Q 3459 4659 4071 4006 
Q 4684 3353 4684 2284 
Q 4684 1219 4068 570 
Q 3453 -78 2497 -78 
Q 1506 -78 903 594 
Q 300 1266 300 2234 
Q 300 3363 911 4011 
Q 1522 4659 2497 4659 
z
M 2491 441 
Q 3188 441 3620 928 
Q 4053 1416 4056 2284 
Q 4056 3178 3614 3659 
Q 3172 4141 2503 4141 
Q 1816 4141 1372 3669 
Q 928 3197 928 2222 
Q 928 1425 1362 933 
Q 1797 441 2491 441 
z
" transform="scale(0.015625)"/>
       <path id="ArialUnicodeMS-55" d="M 4109 1931 
Q 4109 1578 4070 1278 
Q 4031 978 3864 661 
Q 3697 344 3320 133 
Q 2944 -78 2316 -78 
Q 1703 -78 1328 109 
Q 953 297 778 594 
Q 603 891 554 1212 
Q 506 1534 506 1931 
L 506 4581 
L 1113 4581 
L 1113 1941 
Q 1113 1528 1172 1229 
Q 1231 931 1484 700 
Q 1738 469 2266 469 
Q 2800 469 3069 653 
Q 3338 838 3419 1145 
Q 3500 1453 3500 1941 
L 3500 4581 
L 4109 4581 
L 4109 1931 
z
" transform="scale(0.015625)"/>
       <path id="ArialUnicodeMS-4c" d="M 3347 0 
L 481 0 
L 481 4581 
L 1088 4581 
L 1088 544 
L 3347 544 
L 3347 0 
z
" transform="scale(0.015625)"/>
       <path id="ArialUnicodeMS-6709" d="M 5991 4031 
L 2547 4031 
Q 2403 3600 2316 3438 
L 5216 3438 
L 5216 166 
Q 5178 -269 4550 -269 
L 4031 -269 
L 3809 225 
Q 4103 184 4447 184 
Q 4728 184 4728 300 
L 4728 934 
L 2322 934 
L 2322 -416 
L 1813 -416 
L 1813 2656 
Q 1644 2369 738 1434 
L 288 1728 
Q 1619 2903 2022 4031 
L 678 4031 
L 678 4500 
L 2203 4500 
Q 2288 4700 2450 5403 
L 2944 5294 
Q 2884 5041 2731 4500 
L 5991 4500 
L 5991 4031 
z
M 4728 2450 
L 4728 2969 
L 2322 2969 
L 2322 2450 
L 4728 2450 
z
M 4728 1403 
L 4728 1984 
L 2322 1984 
L 2322 1403 
L 4728 1403 
z
" transform="scale(0.015625)"/>
       <path id="ArialUnicodeMS-6548" d="M 6119 -38 
L 5747 -409 
Q 5044 116 4609 756 
Q 4109 116 3384 -403 
L 3009 -63 
Q 3956 584 4341 1197 
Q 4041 1756 3866 2534 
Q 3672 2144 3450 1850 
L 3022 2081 
Q 3528 2766 3722 3500 
Q 3916 4234 3916 5338 
L 4366 5259 
Q 4384 4781 4306 4072 
L 5953 4072 
L 5953 3603 
L 5569 3603 
Q 5491 2219 4884 1184 
Q 5456 391 6119 -38 
z
M 5063 3603 
L 4231 3603 
L 4166 3322 
Q 4375 2238 4628 1716 
Q 5025 2469 5063 3603 
z
M 3359 3878 
L 569 3878 
L 569 4347 
L 1753 4347 
L 1753 5184 
L 2253 5184 
L 2253 4347 
L 3359 4347 
L 3359 3878 
z
M 1656 3641 
Q 1409 2850 775 2419 
L 384 2719 
Q 953 3006 1234 3803 
L 1656 3641 
z
M 3366 2803 
L 2969 2553 
Q 2688 3184 2150 3547 
L 2559 3794 
Q 3134 3359 3366 2803 
z
M 3278 628 
L 2888 281 
Q 2581 716 2234 1063 
Q 1747 269 769 -306 
L 469 103 
Q 1353 613 1869 1416 
Q 1272 2016 984 2163 
L 1344 2456 
Q 1422 2409 2113 1838 
Q 2219 2069 2375 2650 
L 2797 2456 
Q 2691 1897 2491 1503 
Q 2981 1028 3278 628 
z
" transform="scale(0.015625)"/>
       <path id="ArialUnicodeMS-5230" d="M 5791 109 
Q 5791 -113 5609 -264 
Q 5428 -416 5197 -416 
L 4628 -416 
L 4397 122 
Q 4809 56 5031 56 
Q 5306 56 5306 300 
L 5306 5288 
L 5791 5288 
L 5791 109 
z
M 4050 4513 
L 2381 4513 
Q 2147 3847 1716 3156 
L 3144 3238 
Q 2884 3613 2613 3847 
L 3047 4050 
Q 3706 3506 3981 2631 
L 3541 2369 
Q 3478 2572 3359 2809 
L 722 2631 
L 544 3109 
L 1166 3144 
Q 1638 3966 1850 4513 
L 556 4513 
L 556 4978 
L 4050 4978 
L 4050 4513 
z
M 4750 984 
L 4263 984 
L 4263 4556 
L 4750 4556 
L 4750 984 
z
M 3944 213 
L 641 -319 
L 416 159 
Q 881 181 2003 378 
L 2003 1344 
L 775 1344 
L 775 1813 
L 2003 1813 
L 2003 2553 
L 2491 2553 
L 2491 1813 
L 3700 1813 
L 3700 1344 
L 2491 1344 
L 2491 459 
L 3944 666 
L 3944 213 
z
" transform="scale(0.015625)"/>
       <path id="ArialUnicodeMS-573a" d="M 2413 1441 
L 469 738 
L 184 1172 
Q 506 1247 1147 1453 
L 1147 3138 
L 359 3138 
L 359 3603 
L 1147 3603 
L 1147 5172 
L 1600 5172 
L 1600 3603 
L 2413 3603 
L 2413 3138 
L 1600 3138 
L 1600 1619 
L 2413 1900 
L 2413 1441 
z
M 5741 3091 
Q 5709 2600 5642 2001 
Q 5575 1403 5489 862 
Q 5403 322 5350 100 
Q 5297 -122 5175 -215 
Q 5053 -309 4901 -350 
Q 4750 -391 4659 -366 
L 4084 -206 
L 4000 313 
Q 4700 103 4775 103 
Q 4872 103 4939 398 
Q 5006 694 5104 1339 
Q 5203 1984 5253 2650 
L 4844 2650 
Q 4428 791 2797 -403 
L 2456 -44 
Q 4069 1181 4378 2650 
L 3859 2650 
Q 3697 1994 3198 1378 
Q 2700 763 2094 428 
L 1772 788 
Q 3078 1553 3378 2650 
L 2675 2650 
L 2675 3091 
Q 3497 3641 4469 4469 
L 2363 4469 
L 2363 4934 
L 5241 4934 
L 5241 4531 
Q 4103 3544 3450 3097 
L 3450 3091 
L 5741 3091 
z
" transform="scale(0.015625)"/>
       <path id="ArialUnicodeMS-3e" d="M 3384 1991 
L 353 709 
L 353 1269 
L 2759 2253 
L 353 3250 
L 353 3809 
L 3384 2516 
L 3384 1991 
z
" transform="scale(0.015625)"/>
       <path id="ArialUnicodeMS-3d" d="M 3384 2694 
L 353 2694 
L 353 3219 
L 3384 3219 
L 3384 2694 
z
M 3384 1300 
L 353 1300 
L 353 1825 
L 3384 1825 
L 3384 1300 
z
" transform="scale(0.015625)"/>
       <path id="ArialUnicodeMS-33" d="M 2425 2478 
Q 2850 2397 3067 2067 
Q 3284 1738 3284 1350 
Q 3284 725 2829 323 
Q 2375 -78 1741 -78 
Q 1134 -78 740 275 
Q 347 628 281 1209 
L 844 1288 
Q 928 834 1151 609 
Q 1375 384 1741 384 
Q 2134 384 2407 661 
Q 2681 938 2681 1338 
Q 2681 1722 2432 1975 
Q 2184 2228 1784 2228 
Q 1622 2228 1388 2169 
L 1453 2663 
Q 1678 2663 1809 2684 
Q 1941 2706 2103 2790 
Q 2266 2875 2372 3033 
Q 2478 3191 2478 3425 
Q 2478 3766 2251 3953 
Q 2025 4141 1728 4141 
Q 1388 4141 1173 3925 
Q 959 3709 903 3309 
L 341 3413 
Q 450 4009 823 4306 
Q 1197 4603 1716 4603 
Q 2288 4603 2670 4258 
Q 3053 3913 3053 3413 
Q 3053 2772 2425 2491 
L 2425 2478 
z
" transform="scale(0.015625)"/>
      </defs>
      <use xlink:href="#ArialUnicodeMS-41"/>
      <use xlink:href="#ArialUnicodeMS-2d" transform="translate(66.699219 0)"/>
      <use xlink:href="#ArialUnicodeMS-53" transform="translate(100 0)"/>
      <use xlink:href="#ArialUnicodeMS-4f" transform="translate(166.699219 0)"/>
      <use xlink:href="#ArialUnicodeMS-55" transform="translate(244.482422 0)"/>
      <use xlink:href="#ArialUnicodeMS-4c" transform="translate(316.699219 0)"/>
      <use xlink:href="#ArialUnicodeMS-6709" transform="translate(372.314453 0)"/>
      <use xlink:href="#ArialUnicodeMS-6548" transform="translate(472.314453 0)"/>
      <use xlink:href="#ArialUnicodeMS-5230" transform="translate(572.314453 0)"/>
      <use xlink:href="#ArialUnicodeMS-573a" transform="translate(672.314453 0)"/>
      <use xlink:href="#ArialUnicodeMS-3e" transform="translate(772.314453 0)"/>
      <use xlink:href="#ArialUnicodeMS-3d" transform="translate(830.712891 0)"/>
      <use xlink:href="#ArialUnicodeMS-33" transform="translate(889.111328 0)"/>
     </g>
    </g>
    <g id="patch_15">
     <path d="M 649.726562 42.041562 
L 669.726562 42.041562 
L 669.726562 35.041562 
L 649.726562 35.041562 
z
" style="fill: #e76f51"/>
    </g>
    <g id="text_21">
     <!-- A-SOUL有效到场&gt;=5 -->
     <g transform="translate(677.726562 42.041562) scale(0.1 -0.1)">
      <use xlink:href="#ArialUnicodeMS-41"/>
      <use xlink:href="#ArialUnicodeMS-2d" transform="translate(66.699219 0)"/>
      <use xlink:href="#ArialUnicodeMS-53" transform="translate(100 0)"/>
      <use xlink:href="#ArialUnicodeMS-4f" transform="translate(166.699219 0)"/>
      <use xlink:href="#ArialUnicodeMS-55" transform="translate(244.482422 0)"/>
      <use xlink:href="#ArialUnicodeMS-4c" transform="translate(316.699219 0)"/>
      <use xlink:href="#ArialUnicodeMS-6709" transform="translate(372.314453 0)"/>
      <use xlink:href="#ArialUnicodeMS-6548" transform="translate(472.314453 0)"/>
      <use xlink:href="#ArialUnicodeMS-5230" transform="translate(572.314453 0)"/>
      <use xlink:href="#ArialUnicodeMS-573a" transform="translate(672.314453 0)"/>
      <use xlink:href="#ArialUnicodeMS-3e" transform="translate(772.314453 0)"/>
      <use xlink:href="#ArialUnicodeMS-3d" transform="translate(830.712891 0)"/>
      <use xlink:href="#ArialUnicodeMS-35" transform="translate(889.111328 0)"/>
     </g>
    </g>
   </g>
  </g>
 </g>
 <defs>
  <clipPath id="pe94a0894b6">
   <rect x="58.88" y="25.7025" width="722.32" height="343.2275"/>
  </clipPath>
 </defs>
</svg>
