<?xml version="1.0" encoding="utf-8" standalone="no"?>
<!DOCTYPE svg PUBLIC "-//W3C//DTD SVG 1.1//EN"
  "http://www.w3.org/Graphics/SVG/1.1/DTD/svg11.dtd">
<svg xmlns:xlink="http://www.w3.org/1999/xlink" width="756pt" height="374.4pt" viewBox="0 0 756 374.4" xmlns="http://www.w3.org/2000/svg" version="1.1">
 <metadata>
  <rdf:RDF xmlns:dc="http://purl.org/dc/elements/1.1/" xmlns:cc="http://creativecommons.org/ns#" xmlns:rdf="http://www.w3.org/1999/02/22-rdf-syntax-ns#">
   <cc:Work>
    <dc:type rdf:resource="http://purl.org/dc/dcmitype/StillImage"/>
    <dc:date>2026-03-15T02:13:23.585269</dc:date>
    <dc:format>image/svg+xml</dc:format>
    <dc:creator>
     <cc:Agent>
      <dc:title>Matplotlib v3.10.8, https://matplotlib.org/</dc:title>
     </cc:Agent>
    </dc:creator>
   </cc:Work>
  </rdf:RDF>
 </metadata>
 <defs>
  <style type="text/css">*{stroke-linejoin: round; stroke-linecap: butt}</style>
 </defs>
 <g id="figure_1">
  <g id="patch_1">
   <path d="M 0 374.4 
L 756 374.4 
L 756 0 
L 0 0 
z
" style="fill: #ffffff"/>
  </g>
  <g id="axes_1">
   <g id="patch_2">
    <path d="M 53.4875 326.066457 
L 745.2 326.066457 
L 745.2 25.7925 
L 53.4875 25.7925 
z
" style="fill: #ffffff"/>
   </g>
   <g id="patch_3">
    <path d="M 84.928977 326.066457 
L 217.314145 326.066457 
L 217.314145 194.950434 
L 84.928977 194.950434 
z
" clip-path="url(#pa4f766cc01)" style="fill: #6c757d"/>
   </g>
   <g id="patch_4">
    <path d="M 250.410437 326.066457 
L 382.795604 326.066457 
L 382.795604 311.263035 
L 250.410437 311.263035 
z
" clip-path="url(#pa4f766cc01)" style="fill: #e76f51"/>
   </g>
   <g id="patch_5">
    <path d="M 415.891896 326.066457 
L 548.277063 326.066457 
L 548.277063 287.872346 
L 415.891896 287.872346 
z
" clip-path="url(#pa4f766cc01)" style="fill: #4c78a8"/>
   </g>
   <g id="patch_6">
    <path d="M 581.373355 326.066457 
L 713.758523 326.066457 
L 713.758523 85.847291 
L 581.373355 85.847291 
z
" clip-path="url(#pa4f766cc01)" style="fill: #2a9d8f"/>
   </g>
   <g id="matplotlib.axis_1">
    <g id="xtick_1">
     <g id="line2d_1">
      <defs>
       <path id="m615a4d4e6c" d="M 0 0 
L 0 3.5 
" style="stroke: #000000; stroke-width: 0.8"/>
      </defs>
      <g>
       <use xlink:href="#m615a4d4e6c" x="151.121561" y="326.066457" style="stroke: #000000; stroke-width: 0.8"/>
      </g>
     </g>
     <g id="text_1">
      <!-- 黑名单长期观众 -->
      <g transform="translate(83.931985 361.514047) rotate(-18) scale(0.1 -0.1)">
       <defs>
        <path id="ArialUnicodeMS-9ed1" d="M 5863 1044 
L 672 1044 
L 672 1509 
L 3009 1509 
L 3009 1947 
L 1166 1947 
L 1166 2413 
L 3009 2413 
L 3009 2766 
L 1063 2766 
L 1063 5038 
L 5416 5038 
L 5416 2766 
L 3494 2766 
L 3494 2413 
L 5350 2413 
L 5350 1947 
L 3494 1947 
L 3494 1509 
L 5863 1509 
L 5863 1044 
z
M 4928 3231 
L 4928 4569 
L 3494 4569 
L 3494 3231 
L 4928 3231 
z
M 4813 4281 
Q 4616 3778 4078 3278 
L 3713 3513 
Q 4184 3913 4422 4488 
L 4813 4281 
z
M 3009 3231 
L 3009 4569 
L 1550 4569 
L 1550 3231 
L 3009 3231 
z
M 2766 3488 
L 2356 3278 
Q 2069 3897 1619 4263 
L 2003 4481 
Q 2500 4088 2766 3488 
z
M 1906 697 
Q 1575 100 884 -428 
L 519 -50 
Q 1175 350 1544 991 
L 1906 697 
z
M 6053 -116 
L 5625 -359 
Q 5313 325 4672 781 
L 5141 966 
Q 5669 559 6053 -116 
z
M 4594 -63 
L 4166 -256 
Q 3931 344 3431 769 
L 3884 934 
Q 4325 569 4594 -63 
z
M 3278 -72 
L 2822 -256 
Q 2591 372 2081 750 
L 2528 928 
Q 2941 603 3278 -72 
z
" transform="scale(0.015625)"/>
        <path id="ArialUnicodeMS-540d" d="M 5306 4166 
Q 5306 4113 5057 3789 
Q 4809 3466 4426 3156 
Q 4044 2847 3556 2590 
Q 3069 2334 2478 2144 
L 5269 2144 
L 5269 -428 
L 4781 -428 
L 4781 -72 
L 2381 -72 
L 2381 -428 
L 1894 -428 
L 1894 1966 
Q 1044 1734 775 1697 
L 359 2131 
Q 1944 2425 2875 2822 
Q 2666 3097 2144 3291 
L 2597 3641 
Q 3072 3388 3309 3041 
Q 4119 3422 4678 4116 
L 2772 4116 
Q 2069 3506 1075 3097 
L 569 3481 
Q 2369 4106 3200 5350 
L 3641 5119 
Q 3503 4881 3244 4581 
L 5306 4581 
L 5306 4166 
z
M 4781 397 
L 4781 1678 
L 2381 1678 
L 2381 397 
L 4781 397 
z
" transform="scale(0.015625)"/>
        <path id="ArialUnicodeMS-5355" d="M 5925 947 
L 3353 947 
L 3353 -372 
L 2869 -372 
L 2869 947 
L 347 947 
L 347 1388 
L 2869 1388 
L 2869 1919 
L 1234 1919 
L 1234 4213 
L 2234 4213 
Q 2041 4659 1550 5106 
L 1900 5381 
Q 2347 5050 2747 4359 
L 2547 4219 
L 2547 4213 
L 3328 4213 
Q 3750 4644 4000 5344 
L 4447 5131 
Q 4219 4559 3909 4213 
L 4984 4213 
L 4984 1919 
L 3353 1919 
L 3353 1388 
L 5925 1388 
L 5925 947 
z
M 4500 3316 
L 4500 3744 
L 3353 3744 
L 3353 3316 
L 4500 3316 
z
M 2869 3316 
L 2869 3744 
L 1722 3744 
L 1722 3316 
L 2869 3316 
z
M 4500 2363 
L 4500 2847 
L 3353 2847 
L 3353 2363 
L 4500 2363 
z
M 2869 2363 
L 2869 2847 
L 1722 2847 
L 1722 2363 
L 2869 2363 
z
" transform="scale(0.015625)"/>
        <path id="ArialUnicodeMS-957f" d="M 6125 306 
L 5797 -122 
Q 3488 722 2981 2413 
L 2259 2413 
L 2259 319 
L 3597 844 
L 3597 366 
L 1984 -347 
L 1697 84 
Q 1772 172 1772 331 
L 1772 2413 
L 384 2413 
L 384 2881 
L 1772 2881 
L 1772 5269 
L 2259 5269 
L 2259 3553 
Q 3700 4050 4738 4916 
L 5069 4550 
Q 3859 3588 2259 3084 
L 2259 2881 
L 5978 2881 
L 5978 2413 
L 3469 2413 
Q 3947 959 6125 306 
z
" transform="scale(0.015625)"/>
        <path id="ArialUnicodeMS-671f" d="M 3738 1281 
L 506 1281 
L 506 1747 
L 1075 1747 
L 1075 4134 
L 531 4134 
L 531 4603 
L 1075 4603 
L 1075 5281 
L 1563 5281 
L 1563 4603 
L 2741 4603 
L 2741 5306 
L 3225 5306 
L 3225 4603 
L 3738 4603 
L 3738 4134 
L 3225 4134 
L 3225 1747 
L 3738 1747 
L 3738 1281 
z
M 2741 3688 
L 2741 4134 
L 1563 4134 
L 1563 3688 
L 2741 3688 
z
M 2741 2766 
L 2741 3219 
L 1563 3219 
L 1563 2766 
L 2741 2766 
z
M 2741 1747 
L 2741 2297 
L 1563 2297 
L 1563 1747 
L 2741 1747 
z
M 5753 366 
Q 5753 38 5672 -57 
Q 5591 -153 5489 -233 
Q 5388 -313 4697 -313 
L 4538 178 
L 5147 159 
Q 5269 159 5269 300 
L 5269 1753 
L 4331 1753 
Q 4275 494 3719 -447 
L 3284 -153 
Q 3853 716 3853 1984 
L 3853 4997 
L 5753 4997 
L 5753 366 
z
M 5269 3688 
L 5269 4531 
L 4341 4531 
L 4341 3688 
L 5269 3688 
z
M 5269 2222 
L 5269 3219 
L 4341 3219 
L 4341 2222 
L 5269 2222 
z
M 1931 934 
Q 1556 213 750 -422 
L 384 -84 
Q 1203 488 1588 1247 
L 1931 934 
z
M 3494 366 
L 3150 0 
Q 2775 566 2222 850 
L 2547 1178 
Q 3075 947 3494 366 
z
" transform="scale(0.015625)"/>
        <path id="ArialUnicodeMS-89c2" d="M 5447 1459 
L 4959 1459 
L 4959 4603 
L 3278 4603 
L 3278 1459 
L 2791 1459 
L 2791 5069 
L 5447 5069 
L 5447 1459 
z
M 2747 953 
L 2309 653 
Q 2094 1397 1759 1953 
Q 1125 828 481 109 
L 116 428 
Q 778 1116 1466 2425 
Q 1050 3028 447 3559 
L 831 3822 
Q 1419 3278 1656 2969 
Q 1888 3578 2016 4353 
L 359 4353 
L 359 4819 
L 2509 4819 
L 2497 4359 
Q 2372 3597 1997 2497 
Q 2547 1544 2747 953 
z
M 5966 788 
Q 5897 231 5748 61 
Q 5600 -109 5344 -109 
L 4434 -109 
Q 4019 -34 4019 384 
L 4019 1563 
L 4000 1563 
Q 3766 356 1953 -391 
L 1588 31 
Q 2944 516 3373 1264 
Q 3803 2013 3803 2944 
L 3803 4116 
L 4275 4116 
Q 4281 3850 4281 3584 
Q 4281 2791 4225 2297 
L 4475 2297 
L 4475 403 
Q 4484 388 4556 331 
L 5259 331 
Q 5419 369 5436 430 
Q 5453 491 5478 984 
L 5966 788 
z
" transform="scale(0.015625)"/>
        <path id="ArialUnicodeMS-4f17" d="M 5953 2847 
L 5606 2438 
Q 3959 3047 3213 4281 
Q 2650 3131 819 2534 
Q 594 2844 513 2975 
Q 2631 3431 3059 5300 
L 3519 5113 
L 3425 4788 
Q 3719 4225 4258 3800 
Q 4797 3375 5094 3238 
L 5953 2847 
z
M 6059 -78 
L 5716 -481 
Q 4788 100 4353 1166 
L 4341 1159 
Q 4091 100 2841 -428 
L 2516 -19 
Q 3244 253 3651 812 
Q 4059 1372 4019 2859 
L 4519 2778 
Q 4550 1800 4575 1728 
Q 4728 1288 4978 916 
Q 5228 544 5550 289 
Q 5872 34 6059 -78 
z
M 3181 722 
L 2828 372 
Q 2569 831 2088 1241 
Q 1744 159 588 -409 
L 219 -13 
Q 706 188 1087 553 
Q 1469 919 1626 1408 
Q 1784 1897 1784 2759 
L 2247 2706 
Q 2256 2169 2194 1747 
Q 2800 1297 3181 722 
z
" transform="scale(0.015625)"/>
       </defs>
       <use xlink:href="#ArialUnicodeMS-9ed1"/>
       <use xlink:href="#ArialUnicodeMS-540d" transform="translate(100 0)"/>
       <use xlink:href="#ArialUnicodeMS-5355" transform="translate(200 0)"/>
       <use xlink:href="#ArialUnicodeMS-957f" transform="translate(300 0)"/>
       <use xlink:href="#ArialUnicodeMS-671f" transform="translate(400 0)"/>
       <use xlink:href="#ArialUnicodeMS-89c2" transform="translate(500 0)"/>
       <use xlink:href="#ArialUnicodeMS-4f17" transform="translate(600 0)"/>
      </g>
     </g>
    </g>
    <g id="xtick_2">
     <g id="line2d_2">
      <g>
       <use xlink:href="#m615a4d4e6c" x="316.60302" y="326.066457" style="stroke: #000000; stroke-width: 0.8"/>
      </g>
     </g>
     <g id="text_2">
      <!-- 510回旋 -->
      <g transform="translate(281.099973 351.209553) rotate(-18) scale(0.1 -0.1)">
       <defs>
        <path id="ArialUnicodeMS-35" d="M 1013 2753 
Q 1431 3041 1881 3041 
Q 2453 3041 2878 2636 
Q 3303 2231 3303 1556 
Q 3303 875 2872 398 
Q 2441 -78 1741 -78 
Q 1169 -78 750 245 
Q 331 569 269 1203 
L 856 1247 
Q 928 813 1162 598 
Q 1397 384 1741 384 
Q 2169 384 2434 707 
Q 2700 1031 2700 1503 
Q 2700 1984 2428 2262 
Q 2156 2541 1728 2541 
Q 1188 2541 897 2100 
L 366 2163 
L 813 4519 
L 3084 4519 
L 3084 3975 
L 1259 3975 
L 1013 2753 
z
" transform="scale(0.015625)"/>
        <path id="ArialUnicodeMS-31" d="M 2400 0 
L 1838 0 
L 1838 3584 
Q 1416 3184 709 2906 
L 709 3450 
Q 1681 3916 2034 4603 
L 2400 4603 
L 2400 0 
z
" transform="scale(0.015625)"/>
        <path id="ArialUnicodeMS-30" d="M 1778 4603 
Q 3272 4603 3272 2259 
Q 3272 1075 2886 498 
Q 2500 -78 1778 -78 
Q 288 -78 288 2259 
Q 288 3444 673 4023 
Q 1059 4603 1778 4603 
z
M 1778 384 
Q 2231 384 2462 823 
Q 2694 1263 2694 2259 
Q 2694 2953 2592 3351 
Q 2491 3750 2286 3945 
Q 2081 4141 1772 4141 
Q 1319 4141 1091 3694 
Q 863 3247 863 2259 
Q 863 1575 966 1175 
Q 1069 775 1272 579 
Q 1475 384 1778 384 
z
" transform="scale(0.015625)"/>
        <path id="ArialUnicodeMS-56de" d="M 5575 -134 
L 5088 -147 
L 5088 313 
L 1313 313 
L 1313 -191 
L 825 -191 
L 825 4825 
L 5575 4825 
L 5575 -134 
z
M 5088 794 
L 5088 4366 
L 1313 4366 
L 1313 794 
L 5088 794 
z
M 4378 1509 
L 1997 1509 
L 1997 3653 
L 4378 3653 
L 4378 1509 
z
M 3891 1972 
L 3891 3194 
L 2484 3194 
L 2484 1972 
L 3891 1972 
z
" transform="scale(0.015625)"/>
        <path id="ArialUnicodeMS-65cb" d="M 6181 353 
L 5991 -147 
L 4750 -147 
Q 3963 -147 3469 506 
Q 3247 -6 2747 -422 
L 2381 -84 
Q 3194 547 3194 1619 
L 3194 2613 
L 3675 2497 
Q 3681 2369 3681 2113 
Q 3681 1334 3603 997 
Q 3831 716 4141 544 
L 4141 3097 
L 3066 3097 
L 3066 3438 
Q 2950 3241 2797 3097 
L 2375 3413 
Q 2578 3603 2766 3809 
L 1516 3809 
L 1503 2834 
L 2663 2834 
L 2669 2388 
L 2606 1088 
Q 2578 613 2492 334 
Q 2406 56 2272 -58 
Q 2138 -172 2009 -194 
Q 1881 -216 1550 -216 
Q 1456 -216 1388 -225 
L 1216 256 
Q 1391 250 1759 250 
Q 2038 250 2075 616 
L 2144 1325 
Q 2200 1869 2209 2369 
L 1509 2369 
Q 1509 1772 1407 1250 
Q 1306 728 1157 443 
Q 1009 159 628 -341 
L 250 -56 
Q 588 288 809 795 
Q 1031 1303 1031 2369 
L 1031 3809 
L 488 3809 
L 488 4275 
L 1434 4275 
L 1434 5259 
L 1919 5259 
L 1919 4275 
L 2803 4275 
L 2803 3859 
Q 3266 4456 3384 5381 
L 3841 5228 
Q 3791 4853 3744 4691 
L 5991 4691 
L 5991 4225 
L 3584 4225 
Q 3416 3847 3188 3566 
L 5825 3566 
Q 5794 2856 5563 2338 
Q 5350 2375 5081 2456 
Q 5263 2819 5300 3097 
L 4647 3097 
L 4647 2022 
L 5697 2022 
L 5697 1556 
L 4647 1556 
L 4647 347 
Q 5016 338 5331 338 
Q 5741 338 6181 353 
z
" transform="scale(0.015625)"/>
       </defs>
       <use xlink:href="#ArialUnicodeMS-35"/>
       <use xlink:href="#ArialUnicodeMS-31" transform="translate(55.615234 0)"/>
       <use xlink:href="#ArialUnicodeMS-30" transform="translate(111.230469 0)"/>
       <use xlink:href="#ArialUnicodeMS-56de" transform="translate(166.845703 0)"/>
       <use xlink:href="#ArialUnicodeMS-65cb" transform="translate(266.845703 0)"/>
      </g>
     </g>
    </g>
    <g id="xtick_3">
     <g id="line2d_3">
      <g>
       <use xlink:href="#m615a4d4e6c" x="482.08448" y="326.066457" style="stroke: #000000; stroke-width: 0.8"/>
      </g>
     </g>
     <g id="text_3">
      <!-- 广义回旋 -->
      <g transform="translate(443.426599 352.234621) rotate(-18) scale(0.1 -0.1)">
       <defs>
        <path id="ArialUnicodeMS-5e7f" d="M 5813 3872 
L 1691 3872 
L 1691 2988 
Q 1691 1959 1633 1448 
Q 1575 938 1378 484 
Q 1181 31 678 -391 
L 313 -56 
Q 1222 534 1222 2222 
L 1222 4341 
L 3256 4341 
L 3256 5269 
L 3731 5269 
L 3731 4341 
L 5813 4341 
L 5813 3872 
z
" transform="scale(0.015625)"/>
        <path id="ArialUnicodeMS-4e49" d="M 3744 3816 
L 3303 3547 
Q 3100 4331 2484 5019 
L 2906 5234 
Q 3559 4513 3744 3816 
z
M 6113 -50 
L 5759 -453 
Q 4381 -16 3297 838 
Q 2244 -109 603 -447 
L 347 31 
Q 2003 328 2938 1184 
Q 1816 2369 1528 4588 
L 1991 4794 
Q 2206 3350 2512 2667 
Q 2819 1984 3284 1569 
Q 4269 2709 4525 4728 
L 4991 4550 
Q 4628 2284 3659 1216 
Q 4400 444 6113 -50 
z
" transform="scale(0.015625)"/>
       </defs>
       <use xlink:href="#ArialUnicodeMS-5e7f"/>
       <use xlink:href="#ArialUnicodeMS-4e49" transform="translate(100 0)"/>
       <use xlink:href="#ArialUnicodeMS-56de" transform="translate(200 0)"/>
       <use xlink:href="#ArialUnicodeMS-65cb" transform="translate(300 0)"/>
      </g>
     </g>
    </g>
    <g id="xtick_4">
     <g id="line2d_4">
      <g>
       <use xlink:href="#m615a4d4e6c" x="647.565939" y="326.066457" style="stroke: #000000; stroke-width: 0.8"/>
      </g>
     </g>
     <g id="text_4">
      <!-- kg -->
      <g transform="translate(636.872955 343.13745) rotate(-18) scale(0.1 -0.1)">
       <defs>
        <path id="ArialUnicodeMS-6b" d="M 3175 0 
L 2484 0 
L 1381 1697 
L 984 1319 
L 984 0 
L 422 0 
L 422 4581 
L 984 4581 
L 984 1972 
L 2316 3316 
L 3047 3316 
L 1778 2088 
L 3175 0 
z
" transform="scale(0.015625)"/>
        <path id="ArialUnicodeMS-67" d="M 3144 447 
Q 3144 -259 3003 -607 
Q 2863 -956 2503 -1150 
Q 2144 -1344 1644 -1344 
Q 1081 -1344 706 -1094 
Q 331 -844 331 -275 
L 878 -359 
Q 909 -622 1098 -753 
Q 1288 -884 1638 -884 
Q 2075 -884 2278 -706 
Q 2481 -528 2526 -272 
Q 2572 -16 2572 434 
Q 2206 0 1650 0 
Q 1003 0 611 478 
Q 219 956 219 1684 
Q 219 2416 600 2903 
Q 981 3391 1656 3391 
Q 2244 3391 2613 2919 
L 2625 2919 
L 2625 3316 
L 3144 3316 
L 3144 447 
z
M 1703 459 
Q 2063 459 2341 745 
Q 2619 1031 2619 1703 
Q 2619 2297 2353 2614 
Q 2088 2931 1697 2931 
Q 1297 2931 1045 2606 
Q 794 2281 794 1716 
Q 794 1063 1058 761 
Q 1322 459 1703 459 
z
" transform="scale(0.015625)"/>
       </defs>
       <use xlink:href="#ArialUnicodeMS-6b"/>
       <use xlink:href="#ArialUnicodeMS-67" transform="translate(50 0)"/>
      </g>
     </g>
    </g>
   </g>
   <g id="matplotlib.axis_2">
    <g id="ytick_1">
     <g id="line2d_5">
      <defs>
       <path id="meedb8861b0" d="M 0 0 
L -3.5 0 
" style="stroke: #000000; stroke-width: 0.8"/>
      </defs>
      <g>
       <use xlink:href="#meedb8861b0" x="53.4875" y="326.066457" style="stroke: #000000; stroke-width: 0.8"/>
      </g>
     </g>
     <g id="text_5">
      <!-- 0 -->
      <g transform="translate(40.926563 329.645363) scale(0.1 -0.1)">
       <use xlink:href="#ArialUnicodeMS-30"/>
      </g>
     </g>
    </g>
    <g id="ytick_2">
     <g id="line2d_6">
      <g>
       <use xlink:href="#meedb8861b0" x="53.4875" y="261.982379" style="stroke: #000000; stroke-width: 0.8"/>
      </g>
     </g>
     <g id="text_6">
      <!-- 2000 -->
      <g transform="translate(24.24375 265.561285) scale(0.1 -0.1)">
       <defs>
        <path id="ArialUnicodeMS-32" d="M 3231 0 
L 197 0 
Q 197 388 467 784 
Q 738 1181 1478 1778 
Q 1931 2141 2287 2539 
Q 2644 2938 2644 3341 
Q 2644 3688 2398 3914 
Q 2153 4141 1778 4141 
Q 1400 4141 1144 3908 
Q 888 3675 884 3213 
L 306 3278 
Q 359 3922 764 4262 
Q 1169 4603 1791 4603 
Q 2466 4603 2842 4229 
Q 3219 3856 3219 3328 
Q 3219 2888 2901 2436 
Q 2584 1984 1638 1228 
Q 1141 831 978 544 
L 3231 544 
L 3231 0 
z
" transform="scale(0.015625)"/>
       </defs>
       <use xlink:href="#ArialUnicodeMS-32"/>
       <use xlink:href="#ArialUnicodeMS-30" transform="translate(55.615234 0)"/>
       <use xlink:href="#ArialUnicodeMS-30" transform="translate(111.230469 0)"/>
       <use xlink:href="#ArialUnicodeMS-30" transform="translate(166.845703 0)"/>
      </g>
     </g>
    </g>
    <g id="ytick_3">
     <g id="line2d_7">
      <g>
       <use xlink:href="#meedb8861b0" x="53.4875" y="197.898301" style="stroke: #000000; stroke-width: 0.8"/>
      </g>
     </g>
     <g id="text_7">
      <!-- 4000 -->
      <g transform="translate(24.24375 201.477207) scale(0.1 -0.1)">
       <defs>
        <path id="ArialUnicodeMS-34" d="M 3263 1094 
L 2644 1094 
L 2644 0 
L 2081 0 
L 2081 1094 
L 97 1094 
L 97 1613 
L 2181 4581 
L 2644 4581 
L 2644 1613 
L 3263 1613 
L 3263 1094 
z
M 2081 1613 
L 2081 3681 
L 2069 3681 
L 647 1613 
L 2081 1613 
z
" transform="scale(0.015625)"/>
       </defs>
       <use xlink:href="#ArialUnicodeMS-34"/>
       <use xlink:href="#ArialUnicodeMS-30" transform="translate(55.615234 0)"/>
       <use xlink:href="#ArialUnicodeMS-30" transform="translate(111.230469 0)"/>
       <use xlink:href="#ArialUnicodeMS-30" transform="translate(166.845703 0)"/>
      </g>
     </g>
    </g>
    <g id="ytick_4">
     <g id="line2d_8">
      <g>
       <use xlink:href="#meedb8861b0" x="53.4875" y="133.814223" style="stroke: #000000; stroke-width: 0.8"/>
      </g>
     </g>
     <g id="text_8">
      <!-- 6000 -->
      <g transform="translate(24.24375 137.39313) scale(0.1 -0.1)">
       <defs>
        <path id="ArialUnicodeMS-36" d="M 838 2363 
Q 1225 2969 1941 2969 
Q 2503 2969 2897 2553 
Q 3291 2138 3291 1491 
Q 3291 838 2898 380 
Q 2506 -78 1856 -78 
Q 1197 -78 733 409 
Q 269 897 269 2144 
Q 269 3369 689 3986 
Q 1109 4603 1906 4603 
Q 2422 4603 2778 4315 
Q 3134 4028 3213 3463 
L 2650 3413 
Q 2497 4141 1875 4141 
Q 1444 4141 1134 3712 
Q 825 3284 825 2363 
L 838 2363 
z
M 1844 384 
Q 2231 384 2472 696 
Q 2713 1009 2713 1453 
Q 2713 1897 2472 2187 
Q 2231 2478 1825 2478 
Q 1453 2478 1184 2204 
Q 916 1931 916 1484 
Q 916 1028 1180 706 
Q 1444 384 1844 384 
z
" transform="scale(0.015625)"/>
       </defs>
       <use xlink:href="#ArialUnicodeMS-36"/>
       <use xlink:href="#ArialUnicodeMS-30" transform="translate(55.615234 0)"/>
       <use xlink:href="#ArialUnicodeMS-30" transform="translate(111.230469 0)"/>
       <use xlink:href="#ArialUnicodeMS-30" transform="translate(166.845703 0)"/>
      </g>
     </g>
    </g>
    <g id="ytick_5">
     <g id="line2d_9">
      <g>
       <use xlink:href="#meedb8861b0" x="53.4875" y="69.730146" style="stroke: #000000; stroke-width: 0.8"/>
      </g>
     </g>
     <g id="text_9">
      <!-- 8000 -->
      <g transform="translate(24.24375 73.309052) scale(0.1 -0.1)">
       <defs>
        <path id="ArialUnicodeMS-38" d="M 2425 2478 
Q 3284 2203 3284 1306 
Q 3284 716 2862 319 
Q 2441 -78 1778 -78 
Q 1109 -78 689 322 
Q 269 722 269 1325 
Q 269 1759 505 2084 
Q 741 2409 1141 2478 
L 1141 2491 
Q 453 2703 453 3419 
Q 453 3925 815 4264 
Q 1178 4603 1766 4603 
Q 2363 4603 2730 4253 
Q 3097 3903 3097 3406 
Q 3097 2731 2425 2491 
L 2425 2478 
z
M 1778 2700 
Q 2094 2700 2308 2901 
Q 2522 3103 2522 3406 
Q 2522 3716 2305 3928 
Q 2088 4141 1772 4141 
Q 1450 4141 1240 3931 
Q 1031 3722 1031 3438 
Q 1031 3097 1247 2898 
Q 1463 2700 1778 2700 
z
M 1778 384 
Q 2175 384 2440 640 
Q 2706 897 2706 1306 
Q 2706 1716 2432 1978 
Q 2159 2241 1766 2241 
Q 1356 2241 1100 1970 
Q 844 1700 844 1319 
Q 844 922 1108 653 
Q 1372 384 1778 384 
z
" transform="scale(0.015625)"/>
       </defs>
       <use xlink:href="#ArialUnicodeMS-38"/>
       <use xlink:href="#ArialUnicodeMS-30" transform="translate(55.615234 0)"/>
       <use xlink:href="#ArialUnicodeMS-30" transform="translate(111.230469 0)"/>
       <use xlink:href="#ArialUnicodeMS-30" transform="translate(166.845703 0)"/>
      </g>
     </g>
    </g>
    <g id="text_10">
     <!-- 舰长份数 -->
     <g transform="translate(18.251562 195.929478) rotate(-90) scale(0.1 -0.1)">
      <defs>
       <path id="ArialUnicodeMS-8230" d="M 2572 191 
Q 2572 106 2470 -47 
Q 2369 -200 2175 -217 
Q 1981 -234 1588 -256 
L 1422 244 
L 1981 191 
Q 2028 191 2088 231 
L 2088 2175 
L 1203 2175 
Q 1216 494 678 -434 
L 263 -128 
Q 709 597 722 2175 
L 306 2175 
L 306 2638 
L 722 2638 
L 722 4513 
L 1203 4513 
Q 1475 5000 1613 5363 
L 2059 5166 
Q 1950 4909 1684 4513 
L 2572 4513 
L 2572 191 
z
M 2088 2638 
L 2088 4050 
L 1209 4050 
L 1209 2638 
L 2088 2638 
z
M 2009 2994 
L 1594 2778 
Q 1463 3466 1234 3744 
L 1625 3944 
Q 1884 3538 2009 2994 
z
M 5306 1569 
L 4844 1569 
L 4844 4594 
L 3500 4594 
L 3500 1569 
L 3041 1569 
L 3041 5056 
L 5306 5056 
L 5306 1569 
z
M 5966 691 
Q 5831 -128 5381 -128 
L 4569 -128 
Q 4366 -72 4272 89 
Q 4178 250 4178 366 
L 4191 1528 
L 4178 1544 
Q 3959 409 2888 -366 
L 2559 31 
Q 3700 825 3816 2022 
L 3859 2497 
L 3859 4097 
L 4347 4097 
Q 4366 2891 4300 2175 
L 4653 2175 
L 4653 359 
Q 4663 353 4683 331 
Q 4703 309 4716 300 
L 5356 300 
Q 5428 300 5522 941 
L 5966 691 
z
M 2022 1044 
L 1588 831 
Q 1506 1488 1247 1838 
L 1613 2028 
Q 1888 1684 2022 1044 
z
" transform="scale(0.015625)"/>
       <path id="ArialUnicodeMS-4efd" d="M 6194 2875 
L 5778 2553 
Q 5528 2697 5294 2969 
Q 5269 1894 5181 1111 
Q 5094 328 4944 25 
Q 4794 -278 4372 -278 
Q 4047 -278 3609 -166 
L 3456 372 
Q 4003 178 4359 178 
Q 4475 178 4525 333 
Q 4575 488 4667 1075 
Q 4759 1663 4781 2559 
L 3916 2559 
Q 3822 219 2234 -447 
L 1888 -78 
Q 3416 516 3444 2559 
L 2625 2559 
L 2625 2975 
Q 2409 2722 2150 2484 
L 1813 2759 
L 1813 -475 
L 1325 -475 
L 1325 2816 
L 1319 2828 
Q 1319 2813 1131 2617 
Q 944 2422 738 2253 
L 319 2534 
Q 1466 3466 2009 5300 
L 2450 5094 
Q 2328 4681 2069 4116 
L 1813 3572 
L 1813 2834 
Q 2794 3716 3103 4897 
L 3475 4678 
Q 3244 3744 2669 3028 
L 5241 3028 
Q 4750 3606 4459 4494 
L 3506 4494 
L 3500 4953 
L 4825 4953 
Q 5241 3419 6194 2875 
z
" transform="scale(0.015625)"/>
       <path id="ArialUnicodeMS-6570" d="M 6138 19 
L 5806 -378 
Q 5031 194 4697 716 
Q 4344 144 3328 -441 
L 2981 -50 
Q 3966 434 4403 1153 
Q 4038 1834 3866 2753 
Q 3678 2356 3353 1919 
L 2950 2203 
Q 3838 3172 3963 5253 
L 4409 5125 
Q 4341 4384 4269 4006 
L 5984 4006 
L 5984 3547 
L 5619 3541 
L 5594 3341 
Q 5441 2113 4978 1191 
Q 5281 672 6138 19 
z
M 5166 3541 
L 4172 3541 
Q 4297 2419 4691 1650 
Q 5038 2513 5166 3541 
z
M 3438 3653 
L 2209 3653 
L 2209 2338 
L 1919 2338 
Q 1900 2269 1753 1931 
L 3225 1931 
L 3225 1472 
L 2913 1472 
Q 2763 991 2503 666 
Q 2947 353 3103 184 
L 2747 -172 
Q 2463 138 2150 313 
Q 1322 -225 563 -428 
L 269 6 
Q 1106 163 1684 563 
Q 1291 756 703 884 
L 1038 1472 
L 403 1472 
L 403 1931 
L 1259 1931 
Q 1328 2056 1466 2553 
L 1747 2484 
L 1747 3653 
L 1716 3653 
Q 1413 2881 678 2456 
L 378 2803 
Q 938 3091 1241 3653 
L 403 3653 
L 403 4122 
L 1747 4122 
L 1747 5228 
L 2209 5228 
L 2209 4122 
L 3438 4122 
L 3438 3653 
z
M 2406 1472 
L 1538 1472 
Q 1422 1241 1369 1153 
Q 1388 1159 2069 884 
Q 2219 1031 2406 1472 
z
M 1625 4441 
L 1288 4159 
Q 1022 4547 575 4813 
L 878 5075 
Q 1394 4844 1625 4441 
z
M 3384 4844 
Q 3097 4409 2669 4172 
L 2322 4481 
Q 2806 4759 3047 5069 
L 3384 4844 
z
M 3303 2888 
L 2944 2578 
Q 2706 3025 2291 3297 
L 2584 3566 
Q 2988 3359 3303 2888 
z
" transform="scale(0.015625)"/>
      </defs>
      <use xlink:href="#ArialUnicodeMS-8230"/>
      <use xlink:href="#ArialUnicodeMS-957f" transform="translate(100 0)"/>
      <use xlink:href="#ArialUnicodeMS-4efd" transform="translate(200 0)"/>
      <use xlink:href="#ArialUnicodeMS-6570" transform="translate(300 0)"/>
     </g>
    </g>
   </g>
   <g id="patch_7">
    <path d="M 53.4875 326.066457 
L 53.4875 25.7925 
" style="fill: none; stroke: #000000; stroke-width: 0.8; stroke-linejoin: miter; stroke-linecap: square"/>
   </g>
   <g id="patch_8">
    <path d="M 745.2 326.066457 
L 745.2 25.7925 
" style="fill: none; stroke: #000000; stroke-width: 0.8; stroke-linejoin: miter; stroke-linecap: square"/>
   </g>
   <g id="patch_9">
    <path d="M 53.4875 326.066457 
L 745.2 326.066457 
" style="fill: none; stroke: #000000; stroke-width: 0.8; stroke-linejoin: miter; stroke-linecap: square"/>
   </g>
   <g id="patch_10">
    <path d="M 53.4875 25.7925 
L 745.2 25.7925 
" style="fill: none; stroke: #000000; stroke-width: 0.8; stroke-linejoin: miter; stroke-linecap: square"/>
   </g>
   <g id="text_11">
    <!-- 4,092 -->
    <g transform="translate(140.487264 180.659459) scale(0.085 -0.085)">
     <defs>
      <path id="ArialUnicodeMS-2c" d="M 1216 0 
Q 1216 -397 1064 -606 
Q 913 -816 691 -903 
L 538 -666 
Q 888 -516 891 0 
L 575 0 
L 575 641 
L 1216 641 
L 1216 0 
z
" transform="scale(0.015625)"/>
      <path id="ArialUnicodeMS-39" d="M 2713 2156 
Q 2547 1888 2258 1722 
Q 1969 1556 1631 1556 
Q 1066 1556 670 1970 
Q 275 2384 275 3053 
Q 275 3734 678 4168 
Q 1081 4603 1716 4603 
Q 2353 4603 2818 4106 
Q 3284 3609 3284 2388 
Q 3284 1147 2859 534 
Q 2434 -78 1644 -78 
Q 1128 -78 781 205 
Q 434 488 359 1063 
L 897 1106 
Q 1025 384 1656 384 
Q 2175 384 2450 857 
Q 2725 1331 2725 2156 
L 2713 2156 
z
M 1766 2047 
Q 2178 2047 2420 2339 
Q 2663 2631 2663 3078 
Q 2663 3531 2414 3836 
Q 2166 4141 1778 4141 
Q 1388 4141 1119 3817 
Q 850 3494 850 3034 
Q 850 2600 1114 2323 
Q 1378 2047 1766 2047 
z
" transform="scale(0.015625)"/>
     </defs>
     <use xlink:href="#ArialUnicodeMS-34"/>
     <use xlink:href="#ArialUnicodeMS-2c" transform="translate(55.615234 0)"/>
     <use xlink:href="#ArialUnicodeMS-30" transform="translate(83.398438 0)"/>
     <use xlink:href="#ArialUnicodeMS-39" transform="translate(139.013672 0)"/>
     <use xlink:href="#ArialUnicodeMS-32" transform="translate(194.628906 0)"/>
    </g>
    <!-- 30.9% -->
    <g transform="translate(139.071483 189.653787) scale(0.085 -0.085)">
     <defs>
      <path id="ArialUnicodeMS-33" d="M 2425 2478 
Q 2850 2397 3067 2067 
Q 3284 1738 3284 1350 
Q 3284 725 2829 323 
Q 2375 -78 1741 -78 
Q 1134 -78 740 275 
Q 347 628 281 1209 
L 844 1288 
Q 928 834 1151 609 
Q 1375 384 1741 384 
Q 2134 384 2407 661 
Q 2681 938 2681 1338 
Q 2681 1722 2432 1975 
Q 2184 2228 1784 2228 
Q 1622 2228 1388 2169 
L 1453 2663 
Q 1678 2663 1809 2684 
Q 1941 2706 2103 2790 
Q 2266 2875 2372 3033 
Q 2478 3191 2478 3425 
Q 2478 3766 2251 3953 
Q 2025 4141 1728 4141 
Q 1388 4141 1173 3925 
Q 959 3709 903 3309 
L 341 3413 
Q 450 4009 823 4306 
Q 1197 4603 1716 4603 
Q 2288 4603 2670 4258 
Q 3053 3913 3053 3413 
Q 3053 2772 2425 2491 
L 2425 2478 
z
" transform="scale(0.015625)"/>
      <path id="ArialUnicodeMS-2e" d="M 1209 0 
L 569 0 
L 569 641 
L 1209 641 
L 1209 0 
z
" transform="scale(0.015625)"/>
      <path id="ArialUnicodeMS-25" d="M 4325 4659 
L 1838 -159 
L 1369 -159 
L 3872 4659 
L 4325 4659 
z
M 1428 4653 
Q 1856 4653 2137 4343 
Q 2419 4034 2419 3438 
Q 2419 2850 2131 2539 
Q 1844 2228 1434 2228 
Q 1009 2228 739 2540 
Q 469 2853 469 3475 
Q 469 3984 722 4318 
Q 975 4653 1428 4653 
z
M 1441 2619 
Q 1931 2619 1931 3463 
Q 1931 4269 1441 4269 
Q 953 4269 953 3419 
Q 953 2619 1441 2619 
z
M 4250 2253 
Q 4681 2253 4961 1943 
Q 5241 1634 5241 1038 
Q 5241 600 5087 328 
Q 4934 56 4709 -58 
Q 4484 -172 4256 -172 
Q 3831 -172 3561 140 
Q 3291 453 3291 1075 
Q 3291 1584 3544 1918 
Q 3797 2253 4250 2253 
z
M 4263 219 
Q 4756 219 4756 1063 
Q 4756 1869 4263 1869 
Q 3775 1869 3775 1019 
Q 3775 219 4263 219 
z
" transform="scale(0.015625)"/>
     </defs>
     <use xlink:href="#ArialUnicodeMS-33"/>
     <use xlink:href="#ArialUnicodeMS-30" transform="translate(55.615234 0)"/>
     <use xlink:href="#ArialUnicodeMS-2e" transform="translate(111.230469 0)"/>
     <use xlink:href="#ArialUnicodeMS-39" transform="translate(139.013672 0)"/>
     <use xlink:href="#ArialUnicodeMS-25" transform="translate(194.628906 0)"/>
    </g>
   </g>
   <g id="text_12">
    <!-- 462 -->
    <g transform="translate(309.512825 296.97206) scale(0.085 -0.085)">
     <use xlink:href="#ArialUnicodeMS-34"/>
     <use xlink:href="#ArialUnicodeMS-36" transform="translate(55.615234 0)"/>
     <use xlink:href="#ArialUnicodeMS-32" transform="translate(111.230469 0)"/>
    </g>
    <!-- 3.5% -->
    <g transform="translate(306.916341 305.966388) scale(0.085 -0.085)">
     <use xlink:href="#ArialUnicodeMS-33"/>
     <use xlink:href="#ArialUnicodeMS-2e" transform="translate(55.615234 0)"/>
     <use xlink:href="#ArialUnicodeMS-35" transform="translate(83.398438 0)"/>
     <use xlink:href="#ArialUnicodeMS-25" transform="translate(139.013672 0)"/>
    </g>
   </g>
   <g id="text_13">
    <!-- 1,192 -->
    <g transform="translate(471.450183 273.581371) scale(0.085 -0.085)">
     <use xlink:href="#ArialUnicodeMS-31"/>
     <use xlink:href="#ArialUnicodeMS-2c" transform="translate(55.615234 0)"/>
     <use xlink:href="#ArialUnicodeMS-31" transform="translate(83.398438 0)"/>
     <use xlink:href="#ArialUnicodeMS-39" transform="translate(139.013672 0)"/>
     <use xlink:href="#ArialUnicodeMS-32" transform="translate(194.628906 0)"/>
    </g>
    <!-- 9.0% -->
    <g transform="translate(472.3978 282.575699) scale(0.085 -0.085)">
     <use xlink:href="#ArialUnicodeMS-39"/>
     <use xlink:href="#ArialUnicodeMS-2e" transform="translate(55.615234 0)"/>
     <use xlink:href="#ArialUnicodeMS-30" transform="translate(83.398438 0)"/>
     <use xlink:href="#ArialUnicodeMS-25" transform="translate(139.013672 0)"/>
    </g>
   </g>
   <g id="text_14">
    <!-- 7,497 -->
    <g transform="translate(636.931642 71.556316) scale(0.085 -0.085)">
     <defs>
      <path id="ArialUnicodeMS-37" d="M 3272 4084 
Q 2597 3344 2103 2253 
Q 1609 1163 1522 0 
L 947 0 
Q 969 934 1408 2051 
Q 1847 3169 2547 3975 
L 306 3975 
L 306 4519 
L 3272 4519 
L 3272 4084 
z
" transform="scale(0.015625)"/>
     </defs>
     <use xlink:href="#ArialUnicodeMS-37"/>
     <use xlink:href="#ArialUnicodeMS-2c" transform="translate(55.615234 0)"/>
     <use xlink:href="#ArialUnicodeMS-34" transform="translate(83.398438 0)"/>
     <use xlink:href="#ArialUnicodeMS-39" transform="translate(139.013672 0)"/>
     <use xlink:href="#ArialUnicodeMS-37" transform="translate(194.628906 0)"/>
    </g>
    <!-- 56.6% -->
    <g transform="translate(635.515861 80.550644) scale(0.085 -0.085)">
     <use xlink:href="#ArialUnicodeMS-35"/>
     <use xlink:href="#ArialUnicodeMS-36" transform="translate(55.615234 0)"/>
     <use xlink:href="#ArialUnicodeMS-2e" transform="translate(111.230469 0)"/>
     <use xlink:href="#ArialUnicodeMS-36" transform="translate(139.013672 0)"/>
     <use xlink:href="#ArialUnicodeMS-25" transform="translate(194.628906 0)"/>
    </g>
   </g>
   <g id="text_15">
    <!-- 嘉然生日会舰长份数构成 -->
    <g transform="translate(333.34375 19.7925) scale(0.12 -0.12)">
     <defs>
      <path id="ArialUnicodeMS-5609" d="M 5844 4372 
L 3500 4372 
L 3500 4122 
L 5409 4122 
L 5409 3653 
L 1075 3653 
L 1075 4122 
L 2988 4122 
L 2994 4372 
L 641 4372 
L 641 4838 
L 2994 4838 
L 2994 5331 
L 3500 5331 
L 3500 4838 
L 5844 4838 
L 5844 4372 
z
M 6125 1472 
L 2234 1472 
Q 2234 1388 2203 1178 
L 3303 1178 
Q 3266 131 3072 -72 
Q 2878 -275 2619 -275 
Q 2400 -275 2028 -191 
Q 1972 -63 1869 238 
Q 1494 -234 616 -416 
L 319 56 
Q 1369 163 1581 709 
L 806 709 
L 806 1178 
L 1709 1178 
Q 1747 1359 1747 1472 
L 422 1472 
L 422 1941 
L 2272 1941 
Q 2247 2013 1913 2284 
L 1325 2284 
L 1325 3456 
L 5197 3456 
L 5197 2284 
L 4594 2284 
Q 4506 2097 4378 1941 
L 6125 1941 
L 6125 1472 
z
M 4709 2753 
L 4709 3016 
L 1797 3016 
L 1797 2753 
L 4709 2753 
z
M 4031 2284 
L 2591 2284 
Q 2719 2138 2809 1941 
L 3803 1941 
Q 3938 2084 4031 2284 
z
M 2778 709 
L 2119 709 
Q 2063 500 1913 294 
Q 2434 166 2638 166 
Q 2706 166 2726 308 
Q 2747 450 2778 709 
z
M 5625 -403 
L 5166 -403 
L 5166 -84 
L 4103 -84 
L 4103 -403 
L 3616 -403 
L 3616 1288 
L 5625 1288 
L 5625 -403 
z
M 5166 384 
L 5166 844 
L 4103 844 
L 4103 384 
L 5166 384 
z
" transform="scale(0.015625)"/>
      <path id="ArialUnicodeMS-7136" d="M 6106 1381 
L 5709 1025 
Q 4566 1869 4366 3272 
Q 4163 2069 2759 1131 
L 2328 1491 
Q 3700 2353 3872 3353 
L 3175 3353 
Q 2731 1997 916 978 
L 525 1338 
Q 1256 1709 1672 2094 
Q 1472 2422 1031 2688 
L 1331 3034 
Q 1759 2763 1991 2394 
Q 2184 2594 2338 2809 
Q 2138 3122 1678 3384 
L 1978 3719 
Q 2425 3456 2591 3213 
Q 2775 3644 2834 4063 
L 1953 4063 
Q 1625 3463 941 2809 
L 519 3084 
Q 1559 3991 1913 5363 
L 2369 5147 
Q 2344 4984 2169 4531 
L 3397 4531 
Q 3369 4225 3284 3822 
L 3938 3822 
L 3938 5294 
L 4422 5294 
L 4422 3822 
L 5759 3822 
L 5759 3353 
L 4813 3353 
Q 5063 2031 6106 1381 
z
M 5663 4288 
L 5306 3969 
Q 5031 4438 4481 4781 
L 4813 5081 
Q 5366 4747 5663 4288 
z
M 6150 -116 
L 5709 -353 
Q 5500 338 4819 1031 
L 5234 1269 
Q 5925 566 6150 -116 
z
M 1703 922 
Q 1350 16 819 -428 
L 397 -153 
Q 1022 406 1281 1125 
L 1703 922 
z
M 4506 -44 
L 4038 -238 
Q 3913 369 3463 953 
L 3922 1113 
Q 4363 572 4506 -44 
z
M 3066 -147 
L 2578 -263 
Q 2578 297 2253 959 
L 2706 1063 
Q 3056 506 3066 -147 
z
" transform="scale(0.015625)"/>
      <path id="ArialUnicodeMS-751f" d="M 5978 -50 
L 697 -50 
L 697 416 
L 2981 416 
L 2981 1778 
L 1325 1778 
L 1325 2247 
L 2981 2247 
L 2981 3444 
L 1734 3444 
Q 1547 2906 872 2188 
L 384 2450 
Q 1459 3413 1556 4831 
L 2041 4684 
Q 2041 4438 1906 3909 
L 2981 3909 
L 2981 5275 
L 3469 5275 
L 3469 3909 
L 5569 3909 
L 5569 3444 
L 3469 3444 
L 3469 2247 
L 5269 2247 
L 5269 1778 
L 3469 1778 
L 3469 416 
L 5978 416 
L 5978 -50 
z
" transform="scale(0.015625)"/>
      <path id="ArialUnicodeMS-65e5" d="M 5044 -178 
L 4538 -178 
L 4538 441 
L 2022 441 
L 2022 -206 
L 1516 -206 
L 1516 4781 
L 5044 4781 
L 5044 -178 
z
M 4538 2881 
L 4538 4313 
L 2022 4313 
L 2022 2881 
L 4538 2881 
z
M 4538 909 
L 4538 2413 
L 2022 2413 
L 2022 909 
L 4538 909 
z
" transform="scale(0.015625)"/>
      <path id="ArialUnicodeMS-4f1a" d="M 6106 2503 
L 5778 2059 
Q 5034 2503 4453 3047 
L 4453 2784 
L 1913 2784 
L 1913 3034 
Q 1488 2625 622 2119 
L 325 2528 
Q 2088 3397 3097 5325 
L 3541 5119 
L 3413 4863 
Q 3988 4097 4472 3645 
Q 4956 3194 6106 2503 
z
M 4219 3244 
Q 3678 3713 3156 4441 
Q 2775 3884 2138 3244 
L 4219 3244 
z
M 5625 -72 
L 5222 -359 
Q 4941 38 4891 84 
L 991 -128 
L 838 359 
L 1556 366 
Q 2009 897 2484 1709 
L 878 1709 
L 878 2144 
L 5472 2144 
L 5472 1709 
L 2681 1709 
L 2969 1544 
Q 2484 775 2119 353 
L 4588 469 
Q 4216 844 3884 1056 
L 4269 1288 
Q 5041 794 5625 -72 
z
" transform="scale(0.015625)"/>
      <path id="ArialUnicodeMS-6784" d="M 5881 4581 
L 5869 3028 
Q 5869 2181 5725 1093 
Q 5581 6 5389 -191 
Q 5197 -388 4941 -388 
Q 4788 -388 4384 -263 
L 4225 306 
Q 4341 275 4573 183 
Q 4806 91 4928 91 
Q 5066 91 5106 366 
L 5259 1369 
Q 5322 1784 5344 2297 
L 5409 4122 
L 3322 4122 
Q 3125 3428 2681 2803 
L 2259 3084 
Q 2956 4022 3059 5388 
L 3519 5234 
Q 3513 5059 3425 4581 
L 5881 4581 
z
M 2778 2088 
L 2369 1838 
Q 2175 2353 1856 2613 
L 1856 -378 
L 1375 -378 
L 1375 2203 
L 1363 2203 
Q 1194 1634 684 1038 
L 288 1338 
Q 1078 2188 1313 3628 
L 531 3628 
L 531 4097 
L 1369 4097 
L 1369 5338 
L 1856 5338 
L 1856 4097 
L 2584 4097 
L 2584 3634 
L 1856 3634 
L 1856 3022 
L 2022 3116 
Q 2672 2516 2778 2088 
z
M 5178 878 
L 4709 634 
Q 4669 1056 4628 1141 
Q 3647 997 3066 781 
L 2638 1241 
Q 3528 2541 3694 3719 
L 4172 3488 
Q 3866 2281 3475 1691 
L 3278 1388 
L 4475 1594 
Q 4456 1650 4345 1806 
Q 4234 1963 4184 2041 
L 4581 2259 
Q 5094 1675 5178 878 
z
" transform="scale(0.015625)"/>
      <path id="ArialUnicodeMS-6210" d="M 6047 806 
Q 6053 666 5929 261 
Q 5806 -144 5709 -276 
Q 5613 -409 5428 -409 
Q 5159 -409 4751 47 
Q 4344 503 4153 947 
Q 3516 272 2859 -128 
L 2419 213 
Q 3338 709 3922 1409 
Q 3591 2216 3438 3769 
L 1516 3769 
L 1516 2900 
L 3225 2900 
Q 3181 1622 3020 1140 
Q 2859 659 2338 659 
Q 2150 659 1819 709 
L 1606 1241 
Q 2009 1119 2363 1119 
Q 2584 1119 2648 1505 
Q 2713 1891 2725 2431 
L 1509 2431 
Q 1481 1084 1270 496 
Q 1059 -91 728 -459 
L 319 -153 
Q 1000 541 1013 2009 
L 1031 4238 
L 3391 4238 
Q 3359 4997 3359 5319 
L 3841 5319 
Q 3850 4619 3878 4238 
L 5747 4238 
L 5747 3769 
L 3909 3769 
Q 4025 2497 4288 1838 
Q 4734 2413 5106 3431 
L 5550 3284 
Q 5113 2075 4500 1325 
Q 4738 869 5008 498 
Q 5278 128 5409 128 
Q 5450 128 5509 462 
Q 5569 797 5575 1081 
L 6047 806 
z
M 5650 4659 
L 5306 4359 
Q 4688 4859 4063 4928 
L 4447 5275 
Q 5144 5119 5650 4659 
z
" transform="scale(0.015625)"/>
     </defs>
     <use xlink:href="#ArialUnicodeMS-5609"/>
     <use xlink:href="#ArialUnicodeMS-7136" transform="translate(100 0)"/>
     <use xlink:href="#ArialUnicodeMS-751f" transform="translate(200 0)"/>
     <use xlink:href="#ArialUnicodeMS-65e5" transform="translate(300 0)"/>
     <use xlink:href="#ArialUnicodeMS-4f1a" transform="translate(400 0)"/>
     <use xlink:href="#ArialUnicodeMS-8230" transform="translate(500 0)"/>
     <use xlink:href="#ArialUnicodeMS-957f" transform="translate(600 0)"/>
     <use xlink:href="#ArialUnicodeMS-4efd" transform="translate(700 0)"/>
     <use xlink:href="#ArialUnicodeMS-6570" transform="translate(800 0)"/>
     <use xlink:href="#ArialUnicodeMS-6784" transform="translate(900 0)"/>
     <use xlink:href="#ArialUnicodeMS-6210" transform="translate(1000 0)"/>
    </g>
   </g>
  </g>
 </g>
 <defs>
  <clipPath id="pa4f766cc01">
   <rect x="53.4875" y="25.7925" width="691.7125" height="300.273957"/>
  </clipPath>
 </defs>
</svg>
